<svg class="lg:inline-block mb-24 hidden w-24 shrink-0" width="91" height="79" xmlns="http://www.w3.org/2000/svg" viewBox="0 0 91 79" fill="none" aria-hidden="true">
  <path d="M17.3584 20.5371C17.3577 20.5368 17.3657 20.5332 17.3841 20.5268C17.3682 20.5341 17.359 20.5373 17.3584 20.5371ZM17.7587 20.437C18.1419 20.3642 18.6993 20.2931 19.4305 20.228C20.8959 20.0974 22.925 20.0023 25.3457 19.9403C30.1795 19.8165 36.4816 19.827 42.752 19.9351C49.0217 20.0432 55.2396 20.2485 59.9036 20.5124C62.2398 20.6446 64.1638 20.7903 65.5032 20.9431C65.9191 20.9906 66.2632 21.037 66.5372 21.0813C66.571 21.4127 66.6101 21.8264 66.6534 22.3145C66.7641 23.5645 66.9001 25.2815 67.0432 27.3087C67.3293 31.3631 67.6423 36.6424 67.8366 41.8859C68.0311 47.1386 68.1049 52.3188 67.9185 56.1906C67.8247 58.1379 67.6679 59.6865 67.4475 60.73C67.379 61.0544 67.3113 61.2949 67.2521 61.4656C65.9509 61.5128 62.8152 61.5094 58.5899 61.4673C53.7055 61.4186 47.5039 61.3212 41.3746 61.2129C33.6878 61.0771 26.095 60.9237 21.38 60.8284C19.8425 60.7974 18.611 60.7725 17.782 60.7564C17.7659 60.6218 17.7494 60.4727 17.7327 60.3087C17.6217 59.2182 17.5176 57.6323 17.426 55.6937C17.243 51.8247 17.1134 46.6353 17.0702 41.3848C17.0269 36.1329 17.0704 30.8411 17.2315 26.7641C17.3122 24.7215 17.4216 23.0101 17.5605 21.7697C17.6248 21.1955 17.6922 20.7524 17.7587 20.437ZM67.1151 61.7712C67.1149 61.7703 67.1203 61.761 67.1318 61.7459C67.121 61.7646 67.1153 61.7721 67.1151 61.7712ZM17.8553 20.0708C17.8602 20.0582 17.8629 20.0526 17.863 20.053C17.8632 20.0534 17.8607 20.0597 17.8553 20.0708Z" stroke="white" stroke-width="3" stroke-linejoin="round"></path>
  <path d="M74.5874 51.5245C75.4147 51.5663 76.1194 50.9296 76.1613 50.1022C76.2032 49.2748 75.5664 48.5702 74.739 48.5283L74.5874 51.5245ZM72.739 49.684C71.9154 49.5946 71.1753 50.1898 71.0859 51.0133C70.9964 51.8369 71.5916 52.5771 72.4152 52.6665L72.739 49.684ZM79.5605 60.0323C79.5605 62.747 78.3684 64.8173 76.547 66.2456C74.6928 67.6996 72.1588 68.5 69.5713 68.5V71.5C72.7348 71.5 75.9455 70.5296 78.3982 68.6063C80.8836 66.6573 82.5605 63.7437 82.5605 60.0323H79.5605ZM69.5713 68.5C67.411 68.5 65.4108 67.8173 63.9698 66.5232C62.555 65.2527 61.5605 63.2882 61.5605 60.459H58.5605C58.5605 64.0558 59.857 66.8618 61.9653 68.7553C64.0475 70.6252 66.8026 71.5 69.5713 71.5V68.5ZM61.5605 60.459C61.5605 56.4522 65.9873 51.0892 74.5874 51.5245L74.739 48.5283C64.8888 48.0297 58.5605 54.3041 58.5605 60.459H61.5605ZM72.4152 52.6665C75.3087 52.9806 77.0214 53.8413 78.0313 54.9681C79.0398 56.0935 79.5605 57.7222 79.5605 60.0323H82.5605C82.5605 57.3032 81.9455 54.8406 80.2653 52.9659C78.5864 51.0925 76.0574 50.0443 72.739 49.684L72.4152 52.6665Z" fill="#F4B81E"></path>
  <path d="M60.0869 67.8218C59.3827 67.3855 58.4581 67.6026 58.0218 68.3069C57.5855 69.0111 57.8027 69.9357 58.5069 70.372L60.0869 67.8218ZM61.5833 70.2987C62.2608 70.7755 63.1965 70.6129 63.6733 69.9354C64.1501 69.258 63.9875 68.3223 63.31 67.8455L61.5833 70.2987ZM59.7001 54.0028C63.3126 47.4401 71.1631 46.7674 77.3642 50.1808L78.8109 47.5526C71.7411 43.6611 61.7703 44.0208 57.072 52.5561L59.7001 54.0028ZM77.3642 50.1808C79.9348 51.5958 81.8893 53.7489 82.7596 56.3156C83.6196 58.8521 83.474 61.9457 81.5771 65.3919L84.2052 66.8386C86.4636 62.7358 86.7596 58.7703 85.6007 55.3523C84.4521 51.9647 81.9271 49.268 78.8109 47.5526L77.3642 50.1808ZM81.5771 65.3919C78.7978 70.441 69.8718 73.8841 60.0869 67.8218L58.5069 70.372C69.4056 77.1244 80.4136 73.7268 84.2052 66.8386L81.5771 65.3919ZM63.31 67.8455C60.1245 65.6034 58.6065 63.4187 58.1346 61.2939C57.6617 59.1651 58.169 56.7844 59.7001 54.0028L57.072 52.5561C55.3445 55.6945 54.5166 58.8414 55.2059 61.9445C55.8962 65.0517 58.0378 67.8033 61.5833 70.2987L63.31 67.8455Z" fill="#F4B81E"></path>
  <path d="M42.446 3.9674C42.4458 3.96597 42.4455 3.96454 42.4453 3.96312C42.2727 3.9208 42.0438 3.87565 41.7518 3.8315C40.839 3.69351 39.5367 3.59784 37.9396 3.54606C34.7594 3.44296 30.5813 3.5186 26.3926 3.71629C22.2053 3.9139 18.0437 4.23175 14.8994 4.60706C13.3212 4.79543 12.0347 4.99419 11.1396 5.19163C10.8676 5.25163 10.6505 5.30751 10.4832 5.35717C10.4315 5.64495 10.3721 6.02595 10.3063 6.49396C10.1674 7.48167 10.0068 8.80999 9.83675 10.3675C9.49694 13.48 9.1236 17.4718 8.81606 21.4102C8.50819 25.3527 8.26799 29.2199 8.19184 32.0907C8.15401 33.517 8.15792 34.6577 8.20789 35.4292C10.95 35.5694 17.9644 35.9909 24.9906 36.4132L25.486 36.443L25.4887 36.4431C29.8969 36.708 34.3031 36.9728 37.6957 37.1714C39.3925 37.2707 40.8339 37.3534 41.8944 37.4112C42.1877 37.4271 42.4511 37.4412 42.6823 37.4531C42.6873 37.4173 42.6923 37.3802 42.6974 37.3419C42.8121 36.4753 42.9077 35.1936 42.9816 33.5987C43.1287 30.4226 43.1838 26.1458 43.1618 21.7867C43.1399 17.4298 43.041 13.0133 42.8824 9.56154C42.8029 7.83345 42.7092 6.36281 42.6045 5.26825C42.5519 4.71918 42.4984 4.28421 42.446 3.9674ZM8.29946 36.1874C8.29966 36.1877 8.29862 36.1836 8.29607 36.176C8.29808 36.1836 8.29927 36.1872 8.29946 36.1874ZM42.5317 38.223C42.5317 38.2231 42.5327 38.2207 42.5345 38.2154C42.5325 38.2203 42.5316 38.2229 42.5317 38.223Z" stroke="#F4B81E" stroke-width="3" stroke-linejoin="round"></path>
  <path d="M6.65616 3.44032C6.70717 2.92631 6.75898 2.51867 6.80952 2.22042C6.98061 2.17504 7.20848 2.12567 7.50019 2.07601C8.39739 1.92329 9.67714 1.80372 11.2464 1.72085C14.3714 1.55582 18.4769 1.54428 22.5927 1.65202C26.7073 1.75973 30.7959 1.98569 33.8847 2.28977C35.4352 2.44241 36.6976 2.61132 37.5746 2.78698C37.809 2.83393 38.001 2.87849 38.1543 2.91911C38.1928 3.19917 38.2344 3.56207 38.278 4.00348C38.3771 5.00743 38.4814 6.36251 38.5838 7.95507C38.7884 11.1372 38.9827 15.226 39.1122 19.2633C39.2419 23.3043 39.306 27.2722 39.2525 30.2194C39.2256 31.7002 39.1696 32.8849 39.0836 33.6823C39.0829 33.6888 39.0822 33.6953 39.0814 33.7018H39.0726H39.0344H38.9956H38.9563H38.9164H38.8759H38.8349H38.7933H38.7512H38.7085H38.6653H38.6216H38.5773H38.5325H38.4871H38.4412H38.3948H38.3478H38.3003H38.2523H38.2038H38.1548H38.1052H38.0552H38.0046H37.9535H37.902H37.8499H37.7974H37.7443H37.6907H37.6367H37.5822H37.5272H37.4717H37.4157H37.3593H37.3024H37.245H37.1872H37.1289H37.0701H37.0109H36.9512H36.8911H36.8305H36.7694H36.708H36.6461H36.5837H36.5209H36.4577H36.394H36.3299H36.2654H36.2005H36.1351H36.0694H36.0032H35.9366H35.8696H35.8022H35.7344H35.6661H35.5975H35.5285H35.4591H35.3893H35.3191H35.2486H35.1776H35.1063H35.0346H34.9625H34.8901H34.8173H34.7441H34.6706H34.5966H34.5224H34.4478H34.3728H34.2975H34.2218H34.1458H34.0695H33.9928H33.9158H33.8384H33.7608H33.6827H33.6044H33.5258H33.4468H33.3675H33.2879H33.208H33.1277H33.0472H32.9664H32.8853H32.8038H32.7221H32.6401H32.5578H32.4752H32.3923H32.3092H32.2257H32.142H32.0581H31.9738H31.8893H31.8045H31.7195H31.6342H31.5486H31.4628H31.3767H31.2904H31.2038H31.117H31.03H30.9427H30.8552H30.7675H30.6795H30.5913H30.5029H30.4142H30.3254H30.2363H30.147H30.0575H29.9678H29.8779H29.7878H29.6975H29.6069H29.5162H29.4254H29.3343H29.243H29.1516H29.0599H28.9681H28.8761H28.784H28.6917H28.5992H28.5065H28.4137H28.3207H28.2276H28.1343H28.0409H27.9473H27.8536H27.7597H27.6657H27.5716H27.4773H27.3829H27.2884H27.1937H27.099H27.0041H26.909H26.8139H26.7187H26.6233H26.5279H26.4323H26.3366H26.2409H26.145H26.0491H25.953H25.8569H25.7607H25.6644H25.568H25.4716H25.375H25.2785H25.1818H25.0851H24.9883H24.8914H24.7945H24.6976H24.6005H24.5035H24.4064H24.3092H24.212H24.1148H24.0175H23.9202H23.8229H23.7256H23.6282H23.5308H23.4333H23.3359H23.2385H23.141H23.0435H22.946H22.8486H22.7511H22.6536H22.5561H22.4587H22.3612H22.2638H22.1664H22.069H21.9716H21.8742H21.7769H21.6796H21.5823H21.4851H21.3879H21.2908H21.1936H21.0966H20.9996H20.9026H20.8057H20.7089H20.6121H20.5153H20.4187H20.3221H20.2256H20.1291H20.0327H19.9365H19.8402H19.7441H19.6481H19.5521H19.4563H19.3605H19.2648H19.1693H19.0738H18.9785H18.8832H18.7881H18.6931H18.5982H18.5034H18.4087H18.3142H18.2198H18.1255H18.0314H17.9374H17.8435H17.7498H17.6562H17.5628H17.4695H17.3764H17.2834H17.1906H17.098H17.0055H16.9132H16.821H16.729H16.6372H16.5456H16.4541H16.3629H16.2718H16.1809H16.0902H15.9997H15.9094H15.8193H15.7293H15.6396H15.5501H15.4608H15.3718H15.2829H15.1943H15.1058H15.0176H14.9297H14.8419H14.7544H14.6671H14.5801H14.4933H14.4067H14.3204H14.2344H14.1485H14.063H13.9777H13.8926H13.8079H13.7233H13.6391H13.5551H13.4714H13.388H13.3048H13.2219H13.1393H13.057H12.975H12.8933H12.8119H12.7307H12.6499H12.5694H12.4892H12.4092H12.3296H12.2504H12.1714H12.0927H12.0144H11.9364H11.8587H11.7814H11.7043H11.6276H11.5513H11.4753H11.3996H11.3243H11.2494H11.1747H11.1005H11.0266H10.953H10.8799H10.807H10.7346H10.6625H10.5908H10.5195H10.4486H10.378H10.3078H10.238H10.1686H10.0996H10.031H9.96278H9.89496H9.82755H9.76054H9.69395H9.62776H9.56199H9.49664H9.4317H9.36719H9.30311H9.23945H9.17623H9.11343H9.05108H8.98916H8.92769H8.86666H8.80607H8.74594H8.68626H8.62703H8.56826H8.50996H8.45211H8.39474H8.33783H8.28139H8.22543H8.16995H8.11494H8.06042H8.00639H7.95284H7.89978H7.84722H7.79515H7.74358H7.69252H7.64195H7.5919H7.54235H7.49332H7.4448H7.39681H7.34933H7.30237H7.25595H7.21005H7.16468H7.11985H7.07555H7.0318H6.98858H6.94591H6.9038H6.86223H6.82121H6.78075H6.74085H6.70152H6.66274H6.62454H6.5869H6.57534C6.5716 33.676 6.56784 33.6494 6.56406 33.6221C6.45225 32.8138 6.35858 31.6136 6.28605 30.1145C6.14166 27.1305 6.08747 23.1094 6.10907 19.0064C6.13065 14.9059 6.22778 10.7471 6.38356 7.49186C6.46155 5.862 6.55352 4.47461 6.65616 3.44032ZM38.9563 34.4605C38.9563 34.4601 38.9574 34.4566 38.9597 34.4504C38.9575 34.4577 38.9562 34.4609 38.9563 34.4605ZM6.71956 34.4213C6.71951 34.4214 6.71832 34.4185 6.71615 34.4123C6.71852 34.418 6.71961 34.4212 6.71956 34.4213Z" stroke="#F4B81E" stroke-width="3" stroke-linejoin="round"></path>
  <ellipse cx="14.6523" cy="68.1517" rx="2.42615" ry="2.48518" transform="rotate(-179 14.6523 68.1517)" fill="#F4B81E"></ellipse>
  <path d="M64.6094 12.1073C63.8402 12.415 63.4661 13.2879 63.7738 14.0571C64.0815 14.8263 64.9544 15.2004 65.7236 14.8927L64.6094 12.1073ZM74.6691 19.9119C74.6204 20.7389 75.2514 21.4488 76.0784 21.4974C76.9054 21.5461 77.6153 20.9151 77.6639 20.0881L74.6691 19.9119ZM65.7236 14.8927C67.9262 14.0117 70.3325 13.9965 72.0521 14.8069C72.892 15.2027 73.5653 15.7904 74.0184 16.5806C74.4724 17.3722 74.7549 18.454 74.6691 19.9119L77.6639 20.0881C77.7782 18.1461 77.4106 16.4653 76.6208 15.0882C75.8302 13.7096 74.666 12.7223 73.331 12.0931C70.7005 10.8535 67.4068 10.9883 64.6094 12.1073L65.7236 14.8927Z" fill="#F4B81E"></path>
  <ellipse cx="2.97038" cy="46.3326" rx="1.73297" ry="1.78485" transform="rotate(68 2.97038 46.3326)" fill="#F4B81E"></ellipse>
  <ellipse cx="88.5392" cy="75.9576" rx="1.73297" ry="1.78485" transform="rotate(68 88.5392 75.9576)" fill="#F4B81E"></ellipse>
  <ellipse cx="55.9826" cy="26.2755" rx="1.73297" ry="1.78485" transform="rotate(68 55.9826 26.2755)" fill="#F4B81E"></ellipse>
  <ellipse cx="60.9826" cy="26.2755" rx="1.73297" ry="1.78485" transform="rotate(68 60.9826 26.2755)" fill="#F4B81E"></ellipse>
</svg>