<svg width="108" height="52" xmlns="http://www.w3.org/2000/svg" viewBox="0 0 108 52" fill="none">
  <g clip-path="url(#oikpliwhaz-clip0_394_91)">
    <path d="M12.7624 20.2068C8.34722 19.2147 6.07061 17.5043 6.07061 15.0755C6.07061 12.5783 8.4507 10.6626 11.6586 10.6626C14.9356 10.6626 17.4191 12.7493 17.4191 15.486V15.6913H21.9378V15.486C21.9378 10.4574 17.5571 6.66022 11.7276 6.66022C8.93362 6.66022 6.34657 7.51544 4.48389 9.08903C3.56171 9.85502 2.82094 10.813 2.31421 11.895C1.80747 12.9769 1.54721 14.1562 1.5519 15.3492C1.53663 16.4475 1.76688 17.5356 2.22612 18.5352C2.68536 19.5348 3.36218 20.4211 4.20794 21.1304C5.79466 22.4988 8.00228 23.525 10.8308 24.1408C15.591 25.2012 18.0055 26.9801 18.0055 29.4431C18.0055 32.1113 15.384 34.1296 11.9001 34.1296C8.31272 34.1296 5.5877 31.8719 5.5877 28.8957V28.6905H1V28.8957C1 34.1639 5.65669 38.132 11.7966 38.132C14.7286 38.132 17.4536 37.2426 19.4198 35.6006C20.3942 34.8087 21.1785 33.8113 21.7155 32.6811C22.2525 31.5509 22.5288 30.3162 22.5242 29.0668C22.5242 24.6539 19.2473 21.6778 12.7624 20.2068Z" fill="currentColor"></path>
    <path d="M38.1155 14.0835C36.4217 14.0646 34.7482 14.4494 33.2355 15.2054C31.7229 15.9614 30.4154 17.0666 29.423 18.428V14.6308H25.1458V45.8974H29.4575V33.9928C30.4473 35.3569 31.7542 36.4641 33.2675 37.2204C34.7807 37.9768 36.4556 38.3599 38.15 38.3373C44.8418 38.3373 49.878 33.1376 49.878 26.2275C49.878 19.3174 44.8074 14.0835 38.1155 14.0835ZM45.3593 27.1169C45.1862 28.9163 44.391 30.601 43.1085 31.8853C41.826 33.1697 40.1351 33.9747 38.3225 34.1639C37.1947 34.3121 36.0479 34.2161 34.9611 33.8823C33.8743 33.5486 32.8735 32.9851 32.0275 32.2307C31.1816 31.4763 30.5107 30.5489 30.061 29.5125C29.6114 28.4761 29.3937 27.3554 29.423 26.2275C29.423 21.6778 32.8379 18.2569 37.3911 18.2569C38.5096 18.2378 39.6194 18.4535 40.6478 18.8897C41.6763 19.326 42.6001 19.973 43.3586 20.7883C44.1251 21.6424 44.6999 22.6483 45.0448 23.7394C45.3897 24.8304 45.4969 25.9817 45.3593 27.1169V27.1169Z" fill="currentColor"></path>
    <path d="M102.688 14.6308V18.4279C101.69 17.0672 100.375 15.9651 98.856 15.2149C97.337 14.4646 95.658 14.0883 93.9613 14.1177C87.3039 14.1177 82.2678 19.2147 82.2678 26.0222C82.2678 32.8297 87.3039 37.9268 93.9613 37.9268C95.6542 37.955 97.3294 37.5817 98.8474 36.8379C100.365 36.0941 101.682 35.0014 102.688 33.6507V34.2323C102.688 38.953 99.7218 41.9976 95.0996 41.9976C91.9951 41.9976 89.3736 40.6293 88.1663 38.3715L88.0973 38.2689H83.6476L83.7511 38.5768C84.5125 40.7898 85.977 42.6983 87.9248 44.0159C90.0669 45.3642 92.5631 46.0544 95.0996 46C98.618 46 101.584 44.9053 103.723 42.7844C105.862 40.6635 107 37.7557 107 34.3007V14.6308H102.688ZM100.274 31.8377C98.4455 33.5823 95.824 34.3007 93.0989 33.8218C91.4852 33.5423 90.0046 32.7567 88.8745 31.5806C87.7445 30.4045 87.0247 28.8999 86.821 27.2879C86.6153 26.0213 86.7109 24.7245 87.1002 23.501C87.4895 22.2775 88.1617 21.1612 89.0631 20.241C90.5902 18.7841 92.636 17.9849 94.7546 18.0174C95.2639 18.012 95.7724 18.0579 96.2724 18.1543C97.8977 18.4284 99.3902 19.2159 100.528 20.3994C101.665 21.5829 102.387 23.0992 102.585 24.7223C102.964 27.4932 102.136 30.093 100.274 31.8377Z" fill="currentColor"></path>
    <path d="M77.5421 6.07868C77.0178 5.9609 76.4722 5.97428 75.9543 6.11759C75.4365 6.26091 74.9627 6.52967 74.5757 6.89968C74.1986 7.28093 73.9249 7.75063 73.7801 8.26503C73.6354 8.77944 73.6243 9.3218 73.7478 9.84161C73.8796 10.4084 74.1694 10.9271 74.5842 11.3384C74.9989 11.7497 75.5219 12.0371 76.0934 12.1678C76.3304 12.2244 76.5743 12.2474 76.8178 12.2362C77.2352 12.2413 77.6492 12.1621 78.0347 12.0033C78.4202 11.8445 78.769 11.6095 79.0599 11.3126C79.437 10.9313 79.7107 10.4616 79.8554 9.94723C80.0002 9.43283 80.0113 8.89046 79.8877 8.37065C79.7492 7.81066 79.4565 7.29984 79.0423 6.89515C78.6282 6.49046 78.1088 6.2078 77.5421 6.07868V6.07868Z" fill="currentColor"></path>
    <path d="M74.6791 33.6507H70.9538C68.2978 33.6507 66.711 31.8719 66.711 28.8958C66.711 25.988 68.1253 22.4988 71.0228 18.2911L71.0573 18.2227V17.0254L58.7084 15.2808C58.7128 14.7743 58.5809 14.2759 58.3262 13.8369C58.0715 13.398 57.7034 13.0343 57.2597 12.7835C56.7613 12.4846 56.1911 12.3238 55.6087 12.3178C55.0263 12.3118 54.4529 12.4608 53.9483 12.7493C53.4745 13.0266 53.082 13.4218 52.8097 13.8958C52.5375 14.3699 52.3949 14.9063 52.396 15.4518C52.3914 16.0674 52.573 16.6702 52.9173 17.1825C53.2617 17.6947 53.7529 18.0928 54.3277 18.3253L50.4989 37.7558H54.7761L58.329 19.2832L64.9863 20.412C63.1926 23.5934 62.2958 26.5696 62.2958 29.2378C62.2958 34.1639 65.2968 37.4137 70.1604 37.7215V37.7558H78.9564V14.6992H74.6447V33.6507H74.6791Z" fill="currentColor"></path>
  </g>
  <defs>
    <clipPath id="oikpliwhaz-clip0_394_91">
      <rect width="106" height="40" transform="translate(1 6)"></rect>
    </clipPath>
  </defs>
</svg>