<svg width="130" height="52" xmlns="http://www.w3.org/2000/svg" viewBox="0 0 130 52" fill="none">
  <path d="M21.9794 23.3184C21.9788 25.3931 21.3629 27.421 20.2097 29.1456C19.0566 30.8703 17.4179 32.2143 15.5009 33.0076C13.5839 33.8009 11.4747 34.008 9.43999 33.6026C7.40531 33.1972 5.53654 32.1975 4.07 30.7301C2.60346 29.2626 1.605 27.3932 1.20091 25.3582C0.796811 23.3233 1.00522 21.2142 1.79977 19.2977C2.59433 17.3812 3.93934 15.7434 5.66473 14.5913C7.39013 13.4393 9.4184 12.8247 11.4931 12.8254C12.8706 12.8258 14.2346 13.0976 15.5071 13.6251C16.7796 14.1527 17.9357 14.9257 18.9094 15.9001C19.8832 16.8745 20.6555 18.0311 21.1822 19.3039C21.709 20.5768 21.9799 21.9409 21.9794 23.3184" fill="currentColor"></path>
  <path d="M32.2008 11.8693C32.2001 12.9539 31.8781 14.014 31.2754 14.9157C30.6727 15.8174 29.8163 16.5203 28.8144 16.9356C27.8125 17.351 26.71 17.4601 25.6461 17.2494C24.5822 17.0386 23.6047 16.5173 22.8368 15.7513C22.069 14.9853 21.5453 14.009 21.3319 12.9456C21.1185 11.8823 21.225 10.7795 21.6379 9.77659C22.0508 8.77369 22.7516 7.91561 23.6519 7.31071C24.5521 6.70581 25.6114 6.38121 26.6959 6.3779C27.4183 6.37569 28.1341 6.51612 28.8021 6.79115C29.4701 7.06617 30.0772 7.47037 30.5886 7.98056C31.1001 8.49075 31.5057 9.09689 31.7824 9.76421C32.059 10.4315 32.2012 11.1469 32.2008 11.8693Z" fill="currentColor"></path>
  <path d="M65.3137 13.7479C65.322 13.5076 65.4212 13.2795 65.5911 13.1096C65.7611 12.9396 65.9892 12.8404 66.2294 12.8321H67.9638C68.2046 12.8396 68.4335 12.9384 68.6042 13.1084C68.7749 13.2785 68.8745 13.5071 68.8829 13.7479V32.8689C68.8745 33.1097 68.7749 33.3383 68.6042 33.5083C68.4335 33.6784 68.2046 33.7772 67.9638 33.7847H66.2294C65.9892 33.7763 65.7611 33.6772 65.5911 33.5072C65.4212 33.3372 65.322 33.1091 65.3137 32.8689V13.7479Z" fill="currentColor"></path>
  <path d="M104.233 12.822C109.49 12.822 113.552 16.7267 113.552 21.98C113.543 22.4287 113.51 22.8767 113.452 23.3218C113.437 23.5524 113.335 23.769 113.168 23.9286C113.001 24.0883 112.78 24.1794 112.549 24.1839H97.8965C98.0978 27.5385 100.986 30.4234 104.988 30.4234C106.788 30.4471 108.545 29.8699 109.98 28.783C110.426 28.4476 110.684 28.4476 111.02 28.7495C111.355 29.0514 111.791 29.4908 112.157 29.8296C112.579 30.2154 112.73 30.5408 112.257 31.0775C111.251 32.2214 108.567 33.845 105.126 33.845C99.0673 33.845 94.391 29.0883 94.391 23.3352C94.391 17.6761 98.4165 12.822 104.482 12.822H104.233ZM110.087 21.3829C109.936 18.4778 107.068 15.8747 104.012 15.8747C102.5 15.8742 101.042 16.4389 99.9248 17.4581C98.8077 18.4772 98.1118 19.877 97.9737 21.3829H110.087Z" fill="currentColor"></path>
  <path d="M128.836 31.356L127.39 29.9236C127.266 29.829 127.111 29.7841 126.956 29.7977C126.801 29.8114 126.657 29.8826 126.551 29.9974C125.985 30.4463 125.281 30.6836 124.559 30.6683C124.172 30.6783 123.787 30.608 123.428 30.4619C123.07 30.3159 122.745 30.0972 122.475 29.8196C121.914 29.2018 121.609 28.3932 121.623 27.5586C121.622 27.5075 121.614 27.4567 121.6 27.4076V15.7136H126.893C127.014 15.7132 127.133 15.689 127.244 15.6423C127.356 15.5957 127.456 15.5276 127.541 15.4419C127.626 15.3562 127.693 15.2546 127.738 15.1429C127.784 15.0312 127.807 14.9117 127.806 14.7911V13.7345C127.81 13.6131 127.789 13.4921 127.745 13.3791C127.7 13.2661 127.633 13.1634 127.547 13.0775C127.461 12.9916 127.358 12.9243 127.245 12.8798C127.132 12.8352 127.011 12.8144 126.89 12.8187H121.6V7.48491C121.602 7.24946 121.512 7.02243 121.35 6.85162C121.188 6.6808 120.966 6.57953 120.731 6.56911L119.188 6.73348C118.951 6.75328 118.728 6.85648 118.56 7.02475C118.392 7.19303 118.289 7.41549 118.269 7.65263V12.8187H115.76C115.638 12.8144 115.517 12.8352 115.404 12.8798C115.291 12.9243 115.189 12.9916 115.103 13.0775C115.017 13.1634 114.949 13.2661 114.905 13.3791C114.86 13.4921 114.84 13.6131 114.844 13.7345V14.7911C114.843 14.9117 114.867 15.0311 114.913 15.1426C114.958 15.2541 115.026 15.3555 115.111 15.4409C115.196 15.5263 115.297 15.594 115.408 15.6403C115.52 15.6865 115.639 15.7103 115.76 15.7103H118.269V27.733H118.292C118.328 28.8478 118.647 29.935 119.218 30.893C119.745 31.732 120.429 32.4619 121.231 33.0433V33.0433L121.285 33.0769C122.281 33.6135 123.401 33.8773 124.532 33.8417V33.8417C126.126 33.864 127.666 33.262 128.822 32.1644C128.878 32.1108 128.922 32.0467 128.952 31.9759C128.983 31.9051 128.999 31.8289 129 31.7518C128.998 31.6036 128.94 31.4617 128.836 31.356V31.356Z" fill="currentColor"></path>
  <path d="M60.9326 12.8455H58.8293C58.653 12.8442 58.4801 12.8939 58.3313 12.9885C58.1826 13.0831 58.0643 13.2187 57.9906 13.3789L51.4124 28.9876L44.9481 13.3453C44.8731 13.1857 44.7539 13.051 44.6047 12.9571C44.4555 12.8631 44.2824 12.8139 44.1061 12.8153H43.8847H41.9525C41.2279 12.8153 40.9461 13.3017 41.2279 13.9257L41.5634 14.7173L49.4466 32.8622C49.621 33.2815 49.9632 33.778 50.4529 33.778H52.3718C52.8548 33.778 53.197 33.2815 53.3781 32.8622L61.3217 14.7475L61.6572 13.9559C61.949 13.3286 61.6572 12.8455 60.9326 12.8455" fill="currentColor"></path>
  <path d="M85.5115 33.8484H78.4937C76.6923 33.8484 75.8101 32.5904 75.8101 31.3694C75.8101 29.4204 77.9536 28.4442 77.9536 28.4442C79.4685 29.3196 81.1763 29.8071 82.9251 29.8632C84.0531 29.885 85.1741 29.6818 86.2227 29.2653C87.2712 28.8487 88.2261 28.2274 89.0317 27.4374C89.8372 26.6475 90.4772 25.7049 90.9141 24.6647C91.3511 23.6246 91.5763 22.5077 91.5765 21.3795C91.5933 19.439 90.8741 17.5643 89.5638 16.133L92.2139 15.3815C92.5493 15.3312 92.7506 14.8918 92.7506 14.5496V13.7244C92.7548 13.6017 92.7337 13.4794 92.6887 13.3652C92.6437 13.2509 92.5756 13.1472 92.4888 13.0603C92.402 12.9735 92.2982 12.9055 92.184 12.8604C92.0697 12.8154 91.9475 12.7943 91.8247 12.7985H82.5863C77.5175 12.7985 74.3475 16.8441 74.3475 21.3795C74.3601 23.1255 74.9055 24.826 75.9107 26.2537C75.9107 26.2537 72.6434 28.1524 72.6434 31.8558C72.6262 32.9165 72.9687 33.9517 73.615 34.7929C74.2612 35.6341 75.1733 36.2317 76.2025 36.4884V36.636C75.7128 36.9245 73.3747 38.2429 73.3747 41.1681C73.3747 44.3851 76.2025 47.894 82.7339 47.894C88.6312 47.894 92.821 44.0429 92.821 39.9973C92.821 35.7572 89.604 33.8484 85.5115 33.8484ZM82.9284 15.9518C83.9785 15.9498 85.0055 16.2594 85.8795 16.8413C86.7536 17.4232 87.4354 18.2513 87.8386 19.2209C88.2418 20.1904 88.3483 21.2578 88.1447 22.2879C87.9411 23.318 87.4364 24.2645 86.6946 25.0077C85.9528 25.7509 85.0073 26.2573 83.9775 26.4629C82.9478 26.6685 81.8803 26.564 80.91 26.1626C79.9397 25.7613 79.1103 25.0811 78.5267 24.2081C77.9431 23.3352 77.6316 22.3088 77.6316 21.2587C77.6307 19.8527 78.1882 18.5039 79.1814 17.5088C80.1747 16.5136 81.5224 15.9536 82.9284 15.9518V15.9518ZM82.6836 44.7272C79.3693 44.7272 76.8332 43.0198 76.8332 40.6816C76.8332 37.8034 80.1005 36.9245 80.1005 36.9245H85.5115C88.9197 36.9245 89.2015 39.4606 89.2015 40.0946C89.2283 42.9225 85.9006 44.7272 82.6836 44.7272V44.7272Z" fill="currentColor"></path>
  <path d="M65.0486 7.13938C65.0374 6.86258 65.0823 6.58636 65.1805 6.32732C65.2787 6.06828 65.4283 5.83176 65.6202 5.63195C65.8121 5.43214 66.0424 5.27317 66.2972 5.16457C66.5521 5.05598 66.8263 5 67.1033 5C67.3803 5 67.6545 5.05598 67.9094 5.16457C68.1642 5.27317 68.3945 5.43214 68.5864 5.63195C68.7783 5.83176 68.9279 6.06828 69.0261 6.32732C69.1243 6.58636 69.1692 6.86258 69.158 7.13938C69.1365 7.66995 68.9107 8.17166 68.5277 8.53947C68.1447 8.90728 67.6343 9.11269 67.1033 9.11269C66.5723 9.11269 66.0619 8.90728 65.6789 8.53947C65.2959 8.17166 65.0701 7.66995 65.0486 7.13938" fill="currentColor"></path>
</svg>