<svg class="lg:inline-block mb-24 hidden w-24 shrink-0" width="93" height="77" xmlns="http://www.w3.org/2000/svg" viewBox="0 0 93 77" fill="none" aria-hidden="true">
  <path d="M34.7232 37.6773C37.6953 41.0309 43.8227 54.0091 44.7482 53.7819C49.0797 51.9289 51.7727 31.1118 51.2449 37.0114C50.7172 42.911 50.2756 54.1412 45.5686 51.4788C44.5748 50.9167 43.2549 43.6076 43.6856 34.0383M54.3334 8.5C42.2677 16.4052 44.7482 24.5 43.6856 34.0383M34.7232 7C40.0639 8.94161 46.7974 15.7317 43.6856 34.0383" stroke="white" stroke-width="3.18078" stroke-linecap="round"></path>
  <ellipse rx="2.91241" ry="2.98327" transform="matrix(0.999848 -0.0174524 -0.0174524 -0.999848 80.7295 7.54637)" fill="#DA2B40"></ellipse>
  <ellipse rx="2.07991" ry="2.14217" transform="matrix(-0.374607 0.927184 0.927184 0.374607 3.02687 72.0545)" fill="#DA2B40"></ellipse>
  <ellipse rx="2.07991" ry="2.14217" transform="matrix(-0.374607 0.927184 0.927184 0.374607 89.5671 20.4632)" fill="#DA2B40"></ellipse>
  <ellipse rx="2.07991" ry="2.14217" transform="matrix(-0.374607 0.927184 0.927184 0.374607 3.18751 10.4778)" fill="#DA2B40"></ellipse>
  <path d="M27.4533 13.4969C28.28 13.2003 28.7097 12.2896 28.4131 11.4628C28.1165 10.6361 27.2058 10.2064 26.3791 10.503L27.4533 13.4969ZM65.1158 10.6021C64.3438 10.1832 63.3783 10.4694 62.9594 11.2414C62.5405 12.0134 62.8267 12.9788 63.5987 13.3978L65.1158 10.6021ZM26.9162 11.9999C26.3791 10.503 26.3789 10.503 26.3787 10.5031C26.3786 10.5032 26.3783 10.5033 26.378 10.5034C26.3774 10.5036 26.3765 10.5039 26.3755 10.5043C26.3733 10.5051 26.3702 10.5062 26.3661 10.5077C26.3579 10.5106 26.3459 10.5149 26.3303 10.5206C26.299 10.5319 26.2529 10.5485 26.1931 10.5702C26.0736 10.6136 25.8989 10.6773 25.6769 10.759C25.233 10.9224 24.5994 11.158 23.8382 11.4475C22.3171 12.0261 20.2791 12.8229 18.2225 13.6927C16.1747 14.5586 14.0703 15.5127 12.4334 16.4062C11.6202 16.8501 10.8728 17.3056 10.2942 17.7528C10.0055 17.9759 9.71969 18.2267 9.48201 18.5032C9.26145 18.7598 8.97505 19.1608 8.86929 19.686L11.9875 20.3138C11.9383 20.5583 11.8302 20.651 11.8942 20.5765C11.9411 20.522 12.0462 20.4188 12.2393 20.2696C12.6242 19.9721 13.2038 19.6095 13.9574 19.1981C15.4544 18.381 17.4437 17.4755 19.4613 16.6223C21.47 15.7728 23.4692 14.9909 24.9689 14.4205C25.718 14.1356 26.3408 13.9041 26.7756 13.7441C26.9929 13.664 27.1633 13.6019 27.2788 13.56C27.3365 13.539 27.3806 13.5231 27.41 13.5125C27.4247 13.5072 27.4357 13.5032 27.443 13.5006C27.4466 13.4993 27.4493 13.4983 27.451 13.4977C27.4519 13.4974 27.4525 13.4972 27.4529 13.497C27.453 13.497 27.4531 13.4969 27.4532 13.4969C27.4533 13.4969 27.4533 13.4969 26.9162 11.9999ZM8.86929 19.686C8.77574 20.1507 8.75278 21.0272 8.74531 21.9788C8.7372 23.0107 8.74983 24.3524 8.77462 25.8928C8.82418 28.9728 8.92341 32.9033 9.00801 36.8287C9.09282 40.7638 9.16308 44.6988 9.15606 47.8208C9.15254 49.3834 9.12966 50.7251 9.08097 51.7536C9.05659 52.2686 9.02646 52.6887 8.99147 53.0101C8.97401 53.1705 8.9565 53.2953 8.94019 53.3884C8.92275 53.4879 8.91185 53.5208 8.91532 53.5101L11.9415 54.4898C12.0515 54.1499 12.1121 53.7352 12.1536 53.3544C12.1983 52.9435 12.2322 52.4527 12.2582 51.904C12.3102 50.8051 12.3333 49.4084 12.3368 47.828C12.3439 44.6641 12.2729 40.695 12.1881 36.7602C12.103 32.8157 12.0044 28.9106 11.955 25.8416C11.9303 24.3076 11.9182 22.9965 11.926 22.0038C11.9299 21.5066 11.9387 21.101 11.9526 20.7928C11.9595 20.6387 11.9673 20.5181 11.9753 20.4279C11.9841 20.3291 11.9903 20.2998 11.9875 20.3138L8.86929 19.686ZM8.91532 53.5101C8.61982 54.4229 9.06424 55.2019 9.29806 55.5498C9.58463 55.9761 9.98585 56.3857 10.4084 56.7626C11.2674 57.5288 12.496 58.4048 13.9254 59.3276C16.8022 61.1846 20.7169 63.3732 24.7009 65.4571C28.6914 67.5445 32.7869 69.5454 36.0408 71.0277C37.6658 71.768 39.0956 72.3856 40.2045 72.8213C40.7571 73.0385 41.2491 73.218 41.6555 73.3457C41.9914 73.4513 42.4711 73.5903 42.8958 73.5903V70.4095C43.0255 70.4095 42.9864 70.4298 42.6092 70.3113C42.3025 70.2149 41.8872 70.065 41.3678 69.8609C40.3325 69.4541 38.9595 68.862 37.3594 68.1331C34.1631 66.6771 30.1196 64.7019 26.1752 62.6386C22.2242 60.5719 18.4079 58.4351 15.6505 56.6552C14.2628 55.7594 13.1986 54.9891 12.5256 54.3888C12.1821 54.0825 12.0075 53.8788 11.938 53.7755C11.8158 53.5936 12.1239 53.9263 11.9415 54.4898L8.91532 53.5101ZM42.8958 73.5903C43.3309 73.5903 43.8059 73.446 44.1309 73.3385C44.5239 73.2086 44.9937 73.0269 45.5163 72.809C46.5652 72.3717 47.912 71.7526 49.4456 71.0128C52.5174 69.531 56.4061 67.532 60.2972 65.4502C64.1886 63.3681 68.0985 61.1946 71.2123 59.362C72.768 58.4464 74.1369 57.609 75.2102 56.9063C76.2333 56.2364 77.1238 55.603 77.6047 55.1079L75.3228 52.892C75.1252 53.0955 74.5316 53.5486 73.4678 54.2452C72.4541 54.9089 71.1332 55.7178 69.599 56.6207C66.5331 58.4251 62.663 60.577 58.7966 62.6456C54.9299 64.7144 51.0829 66.6915 48.0636 68.148C46.5515 68.8774 45.2638 69.4681 44.2922 69.8732C43.8046 70.0765 43.4175 70.2243 43.1326 70.3185C42.7797 70.4351 42.7555 70.4095 42.8958 70.4095V73.5903ZM77.6047 55.1079C77.9861 54.7151 78.2367 54.2169 78.4125 53.7771C78.5983 53.3124 78.7531 52.7764 78.8853 52.2031C79.15 51.0554 79.3543 49.6249 79.5094 48.0368C79.8205 44.8527 79.9483 40.8801 79.9198 36.9371C79.8912 32.9925 79.706 29.0351 79.3814 25.878C79.2195 24.303 79.0198 22.8952 78.7792 21.7752C78.6591 21.2162 78.5226 20.699 78.3642 20.2548C78.2171 19.8424 78.0051 19.3573 77.6749 18.9692L75.2525 21.0306C75.205 20.9748 75.2615 21.0241 75.3682 21.3233C75.4635 21.5905 75.566 21.9619 75.6694 22.4433C75.8758 23.4041 76.0612 24.6845 76.2173 26.2032C76.5288 29.2336 76.7111 33.0861 76.7391 36.9601C76.7671 40.8356 76.6405 44.69 76.3437 47.7276C76.195 49.2504 76.007 50.5294 75.7859 51.4882C75.6752 51.9682 75.5636 52.3347 75.459 52.5964C75.3444 52.8831 75.2805 52.9355 75.3228 52.892L77.6047 55.1079ZM77.6749 18.9692C76.9671 18.1375 75.7791 17.2062 74.5342 16.3288C73.252 15.4252 71.7756 14.4875 70.3885 13.6443C68.9983 12.7994 67.682 12.0399 66.7142 11.4921C66.2299 11.218 65.8318 10.9964 65.5542 10.8429C65.4153 10.7661 65.3065 10.7063 65.2321 10.6656C65.1948 10.6452 65.1662 10.6295 65.1466 10.6189C65.1368 10.6135 65.1293 10.6095 65.1242 10.6067C65.1216 10.6053 65.1196 10.6042 65.1182 10.6034C65.1175 10.603 65.1169 10.6027 65.1165 10.6025C65.1163 10.6024 65.1161 10.6023 65.1161 10.6022C65.1159 10.6022 65.1158 10.6021 64.3572 11.9999C63.5987 13.3978 63.5986 13.3978 63.5986 13.3978C63.5987 13.3978 63.5987 13.3978 63.5988 13.3979C63.599 13.398 63.5994 13.3981 63.5999 13.3984C63.6009 13.399 63.6024 13.3998 63.6046 13.401C63.6089 13.4033 63.6156 13.407 63.6245 13.4118C63.6423 13.4215 63.6692 13.4362 63.7046 13.4556C63.7755 13.4944 63.8804 13.552 64.0152 13.6265C64.2848 13.7756 64.6735 13.992 65.1475 14.2603C66.0963 14.7973 67.3826 15.5395 68.7364 16.3624C70.0931 17.1871 71.502 18.0832 72.7019 18.9288C73.9389 19.8006 74.8296 20.5336 75.2525 21.0306L77.6749 18.9692Z" fill="#DA2B40"></path>
  <path d="M26.3857 15.4933C27.2105 15.1912 27.6342 14.2777 27.332 13.4529C27.0299 12.6282 26.1164 12.2045 25.2917 12.5066L26.3857 15.4933ZM64.9408 12.6272C64.1826 12.1837 63.2085 12.4387 62.7649 13.1968C62.3214 13.9549 62.5764 14.9291 63.3345 15.3726L64.9408 12.6272ZM25.8387 13.9999C25.2917 12.5066 25.2914 12.5067 25.2911 12.5068C25.2909 12.5069 25.2905 12.507 25.2902 12.5071C25.2896 12.5074 25.2888 12.5077 25.2878 12.508C25.2858 12.5087 25.2832 12.5097 25.28 12.5109C25.2734 12.5133 25.2643 12.5167 25.2527 12.521C25.2295 12.5296 25.1962 12.5421 25.1536 12.5582C25.0683 12.5905 24.9454 12.6376 24.7904 12.6984C24.4804 12.8201 24.0408 12.9973 23.5145 13.2222C22.4654 13.6705 21.0553 14.3156 19.6353 15.0959C18.2292 15.8684 16.7439 16.811 15.5888 17.8688C14.496 18.8696 13.3733 20.2682 13.3733 21.9672H16.5541C16.5541 21.6743 16.7908 21.0811 17.737 20.2146C18.621 19.4051 19.8544 18.6048 21.1671 17.8835C22.4658 17.1699 23.7745 16.5702 24.7645 16.1471C25.2577 15.9363 25.6677 15.7711 25.9524 15.6593C26.0948 15.6035 26.2055 15.5611 26.2796 15.5331C26.3166 15.519 26.3444 15.5086 26.3623 15.502C26.3712 15.4986 26.3777 15.4962 26.3817 15.4948C26.3836 15.4941 26.385 15.4936 26.3856 15.4933C26.386 15.4932 26.3862 15.4931 26.3862 15.4931C26.3862 15.4931 26.3861 15.4932 26.3861 15.4932C26.3859 15.4932 26.3857 15.4933 25.8387 13.9999ZM13.3733 21.9672C13.3733 23.9445 13.0218 30.6804 12.8419 37.4722C12.7531 40.8268 12.7078 44.1656 12.7754 46.8426C12.8091 48.1786 12.8715 49.3773 12.9751 50.3429C13.0269 50.8251 13.0914 51.2731 13.1741 51.6633C13.2513 52.0278 13.3657 52.4495 13.5609 52.8148L16.3665 51.3162C16.3843 51.3496 16.3436 51.2768 16.2858 51.0039C16.2334 50.7568 16.1829 50.4245 16.1377 50.0034C16.0474 49.1622 15.9879 48.0613 15.9552 46.7623C15.8897 44.1693 15.9331 40.8964 16.0216 37.5564C16.1963 30.9588 16.5541 23.9734 16.5541 21.9672H13.3733ZM13.5609 52.8148C13.7681 53.2027 14.0859 53.5485 14.3619 53.8187C14.6633 54.1137 15.0321 54.4297 15.4436 54.7572C16.2683 55.4134 17.3433 56.1775 18.5723 56.9982C21.035 58.643 24.2007 60.5714 27.4131 62.4091C30.6255 64.2468 33.9099 66.0084 36.6123 67.3154C37.9612 67.9678 39.1865 68.5174 40.1964 68.9077C40.7007 69.1025 41.172 69.2658 41.591 69.3823C41.9837 69.4916 42.4345 69.5903 42.8604 69.5903V66.4095C42.8726 66.4095 42.7546 66.4045 42.4436 66.318C42.1588 66.2387 41.7916 66.1141 41.3429 65.9407C40.4467 65.5944 39.308 65.0859 37.9972 64.4519C35.3803 63.1862 32.1633 61.4621 28.9926 59.6482C25.8218 57.8342 22.7225 55.945 20.3388 54.3531C19.1445 53.5555 18.1509 52.8465 17.4241 52.2682C17.0599 51.9784 16.7823 51.7368 16.5868 51.5455C16.366 51.3294 16.3366 51.2603 16.3665 51.3162L13.5609 52.8148ZM42.8604 69.5903C43.298 69.5903 43.761 69.4829 44.1577 69.3678C44.5837 69.244 45.0652 69.071 45.5814 68.8649C46.6155 68.4522 47.8763 67.8716 49.2674 67.1855C52.0543 65.8109 55.4528 63.9685 58.7767 62.0793C62.1027 60.189 65.3738 58.2405 67.9088 56.6492C69.1748 55.8545 70.2691 55.1413 71.0993 54.5648C71.5133 54.2772 71.8751 54.0142 72.1652 53.7859C72.4198 53.5855 72.7293 53.3279 72.944 53.0599L70.4616 51.0711C70.499 51.0245 70.454 51.085 70.1978 51.2866C69.9772 51.4602 69.6724 51.6831 69.2848 51.9523C68.5117 52.4892 67.4636 53.1731 66.2177 53.9552C63.7289 55.5175 60.4986 57.4421 57.205 59.314C53.9094 61.1871 50.5701 62.9963 47.8604 64.3328C46.5031 65.0023 45.326 65.5421 44.4022 65.9108C43.9396 66.0955 43.5622 66.2285 43.2707 66.3131C42.9498 66.4063 42.8366 66.4095 42.8604 66.4095V69.5903ZM72.944 53.0599C73.2689 52.6544 73.4093 52.1513 73.4825 51.8479C73.5718 51.4784 73.6382 51.0474 73.6903 50.5885C73.7951 49.666 73.8574 48.4849 73.8911 47.1539C73.9587 44.4839 73.9134 41.0759 73.8246 37.6392C73.6448 30.6819 73.2932 23.7242 73.2932 21.9672H70.1124C70.1124 23.7511 70.4701 30.9573 70.6449 37.7214C70.7334 41.1453 70.7768 44.4873 70.7114 47.0734C70.6785 48.3705 70.619 49.444 70.5298 50.2297C70.485 50.625 70.4365 50.9115 70.3906 51.1013C70.3288 51.3573 70.3141 51.2553 70.4616 51.0711L72.944 53.0599ZM73.2932 21.9672C73.2932 20.5496 72.5587 19.2592 71.7767 18.2527C70.9649 17.2078 69.9188 16.2369 68.928 15.4253C67.9285 14.6067 66.9365 13.9107 66.1986 13.4214C65.8282 13.1758 65.5184 12.98 65.2993 12.8445C65.1896 12.7766 65.1025 12.7238 65.0415 12.6872C65.011 12.6689 64.9871 12.6546 64.9701 12.6446C64.9617 12.6395 64.9549 12.6356 64.95 12.6327C64.9476 12.6312 64.9456 12.6301 64.944 12.6291C64.9432 12.6287 64.9426 12.6283 64.942 12.628C64.9418 12.6278 64.9414 12.6276 64.9413 12.6276C64.941 12.6274 64.9408 12.6272 64.1376 13.9999C63.3345 15.3726 63.3343 15.3725 63.3341 15.3724C63.3341 15.3724 63.3339 15.3723 63.3339 15.3723C63.3338 15.3722 63.3338 15.3723 63.334 15.3723C63.3343 15.3725 63.335 15.3729 63.3362 15.3736C63.3385 15.375 63.3427 15.3775 63.3485 15.3809C63.3602 15.3878 63.3787 15.3989 63.4036 15.4139C63.4535 15.4438 63.5289 15.4895 63.6261 15.5496C63.8207 15.67 64.1019 15.8476 64.4408 16.0723C65.1213 16.5236 66.0206 17.1555 66.9124 17.886C67.813 18.6236 68.6581 19.4232 69.2649 20.2041C69.9014 21.0234 70.1124 21.6143 70.1124 21.9672H73.2932Z" fill="#DA2B40"></path>
  <mask id="hdkkipmhzr-path-8-inside-1_1214_540" fill="white">
    <path d="M74.9194 43.5473C78.5656 43.5473 82.2035 41.1897 82.2035 36.9119C82.2035 32.6597 79.8119 30.2511 75.9627 30.2335C72.1134 30.2159 68.8896 33.8137 68.8896 37.1959C68.8896 41.4737 71.7945 43.5473 74.9194 43.5473Z"></path>
  </mask>
  <path d="M74.9194 43.5473C78.5656 43.5473 82.2035 41.1897 82.2035 36.9119C82.2035 32.6597 79.8119 30.2511 75.9627 30.2335C72.1134 30.2159 68.8896 33.8137 68.8896 37.1959C68.8896 41.4737 71.7945 43.5473 74.9194 43.5473Z" fill="#1C1F20"></path>
  <path d="M75.9627 30.2335L75.9481 33.4142L75.9627 30.2335ZM79.0228 36.9119C79.0228 38.0553 78.5738 38.8292 77.907 39.3782C77.1762 39.9799 76.0938 40.3665 74.9194 40.3665V46.7281C79.716 46.7281 85.3843 43.4967 85.3843 36.9119H79.0228ZM74.9194 40.3665C74.0445 40.3665 73.3571 40.0786 72.9149 39.6616C72.5134 39.283 72.0704 38.5721 72.0704 37.1959H65.7089C65.7089 40.0975 66.7184 42.5623 68.5505 44.2899C70.3419 45.9791 72.6694 46.7281 74.9194 46.7281V40.3665ZM72.0704 37.1959C72.0704 36.4797 72.4422 35.4991 73.2601 34.6604C74.0589 33.8411 75.0367 33.4101 75.9481 33.4142L75.9772 27.0528C73.0394 27.0393 70.4807 28.3984 68.7053 30.2192C66.949 32.0205 65.7089 34.5299 65.7089 37.1959H72.0704ZM75.9481 33.4142C77.2004 33.42 77.8603 33.7964 78.2205 34.1755C78.5972 34.5721 79.0228 35.371 79.0228 36.9119H85.3843C85.3843 34.2007 84.614 31.6691 82.8326 29.794C81.0346 27.9013 78.5741 27.0646 75.9772 27.0528L75.9481 33.4142Z" fill="#DA2B40" mask="url(#hdkkipmhzr-path-8-inside-1_1214_540)"></path>
  <mask id="hdkkipmhzr-path-10-inside-2_1214_540" fill="white">
    <path d="M11.9997 43.5473C15.6459 43.5473 19.2839 41.1897 19.2839 36.9119C19.2839 32.6597 16.8922 30.2511 13.043 30.2335C9.19374 30.2159 5.96997 33.8137 5.96997 37.1959C5.96997 41.4737 8.87482 43.5473 11.9997 43.5473Z"></path>
  </mask>
  <path d="M11.9997 43.5473C15.6459 43.5473 19.2839 41.1897 19.2839 36.9119C19.2839 32.6597 16.8922 30.2511 13.043 30.2335C9.19374 30.2159 5.96997 33.8137 5.96997 37.1959C5.96997 41.4737 8.87482 43.5473 11.9997 43.5473Z" fill="#1C1F20"></path>
  <path d="M13.043 30.2335L13.0285 33.4142L13.043 30.2335ZM16.1031 36.9119C16.1031 38.0553 15.6541 38.8292 14.9873 39.3782C14.2566 39.9799 13.1741 40.3665 11.9997 40.3665V46.7281C16.7964 46.7281 22.4646 43.4967 22.4646 36.9119H16.1031ZM11.9997 40.3665C11.1248 40.3665 10.4375 40.0786 9.99519 39.6616C9.59368 39.283 9.15075 38.5721 9.15075 37.1959H2.78919C2.78919 40.0975 3.79868 42.5623 5.63083 44.2899C7.4222 45.9791 9.74976 46.7281 11.9997 46.7281V40.3665ZM9.15075 37.1959C9.15075 36.4797 9.52253 35.4991 10.3404 34.6604C11.1392 33.8411 12.117 33.4101 13.0285 33.4142L13.0575 27.0528C10.1197 27.0393 7.56099 28.3984 5.78563 30.2192C4.0293 32.0205 2.78919 34.5299 2.78919 37.1959H9.15075ZM13.0285 33.4142C14.2808 33.42 14.9407 33.7964 15.3008 34.1755C15.6776 34.5721 16.1031 35.371 16.1031 36.9119H22.4646C22.4646 34.2007 21.6943 31.6691 19.913 29.794C18.115 27.9013 15.6544 27.0646 13.0575 27.0528L13.0285 33.4142Z" fill="#DA2B40" mask="url(#hdkkipmhzr-path-10-inside-2_1214_540)"></path>
  <mask id="hdkkipmhzr-path-12-inside-3_1214_540" fill="white">
    <path d="M42.6274 77C46.2736 77 49.9115 74.6424 49.9115 70.3647C49.9115 66.1125 47.5199 63.7038 43.6707 63.6863C39.8214 63.6687 36.5977 67.2664 36.5977 70.6487C36.5977 74.9264 39.5025 77 42.6274 77Z"></path>
  </mask>
  <path d="M42.6274 77C46.2736 77 49.9115 74.6424 49.9115 70.3647C49.9115 66.1125 47.5199 63.7038 43.6707 63.6863C39.8214 63.6687 36.5977 67.2664 36.5977 70.6487C36.5977 74.9264 39.5025 77 42.6274 77Z" fill="#1C1F20"></path>
  <path d="M43.6707 63.6863L43.6561 66.867L43.6707 63.6863ZM46.7308 70.3647C46.7308 71.508 46.2818 72.2819 45.615 72.831C44.8842 73.4327 43.8018 73.8193 42.6274 73.8193V80.1808C47.424 80.1808 53.0923 76.9495 53.0923 70.3647H46.7308ZM42.6274 73.8193C41.7525 73.8193 41.0652 73.5314 40.6229 73.1143C40.2214 72.7357 39.7784 72.0249 39.7784 70.6487H33.4169C33.4169 73.5503 34.4264 76.0151 36.2585 77.7427C38.0499 79.4319 40.3774 80.1808 42.6274 80.1808V73.8193ZM39.7784 70.6487C39.7784 69.9325 40.1502 68.9519 40.9681 68.1131C41.7669 67.2938 42.7447 66.8628 43.6561 66.867L43.6852 60.5055C40.7474 60.4921 38.1887 61.8512 36.4133 63.672C34.657 65.4732 33.4169 67.9826 33.4169 70.6487H39.7784ZM43.6561 66.867C44.9084 66.8727 45.5683 67.2491 45.9285 67.6282C46.3053 68.0248 46.7308 68.8237 46.7308 70.3647H53.0923C53.0923 67.6534 52.322 65.1219 50.5407 63.2467C48.7427 61.3541 46.2821 60.5174 43.6852 60.5055L43.6561 66.867Z" fill="#DA2B40" mask="url(#hdkkipmhzr-path-12-inside-3_1214_540)"></path>
</svg>