<svg class="lg:inline-block mb-24 hidden w-24 shrink-0" xmlns="http://www.w3.org/2000/svg" fill="none" viewBox="0 0 101 80" aria-hidden="true">
  <path d="M76.905 50.343s-24.722-11.38-23.937-9.418c.785 1.962 9.025 24.33 9.025 24.33s1.57-7.849 4.71-10.988c3.139-3.14 10.202-3.924 10.202-3.924Z" stroke="#fff" stroke-width="3" stroke-linejoin="round"></path>
  <ellipse cx="13.944" cy="11.913" rx="2.747" ry="2.814" transform="rotate(-179 13.944 11.913)" fill="#7357FF"></ellipse>
  <ellipse cx="95.079" cy="44.501" rx="1.962" ry="2.021" transform="rotate(68 95.079 44.501)" fill="#7357FF"></ellipse>
  <ellipse cx="5.609" cy="24.096" rx="1.962" ry="2.021" transform="rotate(68 5.609 24.096)" fill="#7357FF"></ellipse>
  <path fill-rule="evenodd" clip-rule="evenodd" d="M79.27 55.675c1.209 1.197 3.448 1.205 4.998.53l-4.998-.53Z" fill="#7357FF"></path>
  <path d="M79.27 55.675c1.209 1.197 3.448 1.205 4.998.53" stroke="#7B61FF" stroke-width="3" stroke-linecap="round"></path>
  <path fill-rule="evenodd" clip-rule="evenodd" d="M75.356 62.952c3.774 1.59 7.043 4.264 9.005 8.58l-9.005-8.58Z" fill="#7357FF"></path>
  <path d="M75.356 62.952c3.774 1.59 7.043 4.264 9.005 8.58" stroke="#7B61FF" stroke-width="3" stroke-linecap="round"></path>
  <path fill-rule="evenodd" clip-rule="evenodd" d="M68.222 66.271c2.509 2.486 3.042 4.842 2.256 7.759l-2.256-7.759Z" fill="#7357FF"></path>
  <path d="M68.222 66.271c2.509 2.486 3.042 4.842 2.256 7.759" stroke="#7B61FF" stroke-width="3" stroke-linecap="round"></path>
  <path d="M50.613 54.59a1.5 1.5 0 1 0 0-3v3Zm11.842-16.02a1.5 1.5 0 0 0 3 0h-3ZM50.613 51.59c-6.973 0-12.626-5.654-12.626-12.627h-3c0 8.63 6.996 15.626 15.626 15.626v-3ZM37.987 38.962c0-6.977 5.61-12.627 12.626-12.627v-3c-8.68 0-15.626 7-15.626 15.627h3Zm12.626-12.627c3.66 0 6.58 1.004 8.577 2.918 1.985 1.903 3.265 4.901 3.265 9.316h3c0-5.003-1.466-8.872-4.19-11.482-2.711-2.598-6.464-3.752-10.652-3.752v3Z" fill="#7B61FF"></path>
  <path d="M50.691 56.5a1.5 1.5 0 1 0 0-3v3ZM67.5 38.737a1.5 1.5 0 1 0 3 0h-3ZM50.691 53.5c-4.652 0-8.692-1.186-11.543-3.587-2.81-2.365-4.648-6.062-4.648-11.498h-3c0 6.173 2.123 10.769 5.716 13.794 3.551 2.99 8.357 4.291 13.475 4.291v-3ZM34.5 38.415c0-6.834 5.697-15.915 16.191-15.915v-3C38.17 19.5 31.5 30.322 31.5 38.415h3ZM50.691 22.5c5.535 0 9.687 1.341 12.45 3.907 2.743 2.547 4.359 6.525 4.359 12.33h3c0-6.358-1.784-11.248-5.318-14.529-3.514-3.262-8.517-4.708-14.49-4.708v3Z" fill="#7B61FF"></path>
  <path d="M50.883 64.007a1.5 1.5 0 1 0 0-3v3ZM27.069 40.202h1.5-1.5Zm44.804-1.893a1.5 1.5 0 1 0 3 0h-3Zm-20.99 22.698c-12.45 0-22.314-8.75-22.314-20.805h-3c0 13.952 11.458 23.805 25.314 23.805v-3ZM28.569 40.202c0-8.596 3.03-14.36 7.237-17.995 4.245-3.67 9.827-5.29 15.077-5.29v-3c-5.82 0-12.145 1.79-17.04 6.02C28.91 24.2 25.57 30.83 25.57 40.202h3Zm22.314-23.284c5.225 0 10.476 1.7 14.4 5.181 3.894 3.454 6.59 8.757 6.59 16.21h3c0-8.244-3.014-14.387-7.599-18.454-4.554-4.04-10.548-5.937-16.392-5.937v3Z" fill="#7B61FF"></path>
  <path d="M51.151 73.425a1.5 1.5 0 1 0 0-3v3Zm30.14-35.378a1.5 1.5 0 1 0 3 0h-3Zm-30.14 32.378c-17.696 0-32-14.109-32-31.462h-3c0 19.056 15.693 34.462 35 34.462v-3Zm-32-31.462c0-17.357 14.198-31.463 32-31.463v-3c-19.42 0-35 15.41-35 34.463h3Zm32-31.463c9.049 0 16.545 2.447 21.77 7.374 5.21 4.913 8.37 12.486 8.37 23.173h3c0-11.288-3.354-19.738-9.311-25.355C69.039 7.088 60.715 4.5 51.15 4.5v3Z" fill="#7B61FF"></path>
</svg>