<svg width="165" height="52" xmlns="http://www.w3.org/2000/svg" viewBox="0 0 165 52" fill="none">
  <g clip-path="url(#tcgvcfjixg-clip0_394_104)">
    <path d="M62.558 16.2631H69.4616V13.3737H62.558V9.32366H70.0524V6.43422H59.3368V23.2426H62.5742L62.558 16.2631ZM77.0208 23.4667C77.8722 23.5302 78.7221 23.3256 79.4488 22.8824C79.9087 22.5856 80.2847 22.178 80.5414 21.6978H80.9704V23.2986H83.9811V11.3327H80.9137V17.3997C80.9744 18.3218 80.7019 19.2352 80.1448 19.977C79.8766 20.2883 79.5388 20.5336 79.1581 20.6934C78.7774 20.8531 78.3643 20.923 77.9515 20.8974C77.6046 20.9228 77.2562 20.8761 76.9286 20.7603C76.6011 20.6445 76.3016 20.4622 76.0496 20.2251C75.806 19.9507 75.6203 19.6309 75.5036 19.2845C75.3868 18.9382 75.3413 18.5722 75.3698 18.2081V11.3327H72.3105V18.4562C72.2942 19.355 72.4968 20.2445 72.9013 21.0495C73.2563 21.7817 73.8186 22.3962 74.52 22.8184C75.2773 23.2493 76.1391 23.4679 77.0127 23.4507L77.0208 23.4667ZM90.4639 6.43422H87.4127V23.2426H90.4639V6.43422ZM96.9385 6.43422H93.8873V23.2426H96.9385V6.43422ZM154.652 6.43422H151.593V23.2426H154.652V6.43422ZM62.6713 28.4132L58.1876 45.2216H61.4897L62.4204 41.5238H68.5066L69.4373 45.2216H72.7394L68.2638 28.4132H62.6713ZM63.165 38.6023L65.2288 30.4062H65.6577L67.7135 38.6023H63.165ZM164 11.4687H160.123L154.717 16.8234L160.237 23.2666H164L158.586 16.8634L164 11.4687ZM114.582 23.2506H120.668V20.7614H118.354C118.125 20.7536 117.896 20.7778 117.674 20.8334V13.8459H120.684V11.3327H117.674V7.64282H114.614V11.3327H111.604V13.8459H114.614V23.2506H114.582ZM147.085 33.5438C146.456 33.228 145.759 33.0687 145.053 33.0795C144.301 33.0387 143.552 33.2168 142.901 33.5918C142.415 33.9224 142.011 34.3575 141.719 34.8644H141.29C141.023 34.335 140.607 33.8932 140.092 33.5918C139.468 33.23 138.751 33.0574 138.028 33.0955C137.36 33.0726 136.698 33.2274 136.11 33.5438C135.67 33.7933 135.308 34.1592 135.066 34.6003H134.637V33.2956H131.627V45.2216H134.678V38.1541C134.628 37.4822 134.83 36.8156 135.244 36.2811C135.444 36.0542 135.694 35.8755 135.975 35.759C136.255 35.6424 136.559 35.5911 136.863 35.6088C137.121 35.5908 137.381 35.6248 137.626 35.7087C137.871 35.7926 138.096 35.9247 138.287 36.097C138.471 36.2966 138.612 36.5304 138.702 36.7847C138.792 37.0391 138.83 37.3087 138.814 37.5778V45.2216H141.824V38.1381C141.773 37.4636 141.975 36.794 142.391 36.2571C142.592 36.0316 142.842 35.8539 143.122 35.7375C143.402 35.621 143.706 35.5688 144.009 35.5848C144.268 35.5668 144.527 35.6008 144.772 35.6847C145.017 35.7686 145.242 35.9007 145.434 36.073C145.616 36.2732 145.755 36.5073 145.844 36.7616C145.933 37.0159 145.97 37.2853 145.952 37.5538V45.1656H149.011V37.3297C149.042 36.4965 148.855 35.6696 148.469 34.9285C148.159 34.3294 147.666 33.8421 147.061 33.5358L147.085 33.5438ZM82.7428 42.1401C82.4589 42.3937 82.1263 42.5882 81.7648 42.712C81.4033 42.8358 81.0202 42.8862 80.6385 42.8604C80.0539 42.8688 79.477 42.7282 78.9632 42.4522C78.458 42.1836 78.0463 41.7708 77.7816 41.2676C77.4776 40.6818 77.3299 40.0288 77.3526 39.3707V39.1226C77.3146 38.4651 77.4483 37.8091 77.7411 37.2176C78.0128 36.7194 78.4228 36.3084 78.9227 36.033C79.4349 35.7522 80.0125 35.6087 80.5981 35.6168C81.1311 35.5986 81.6602 35.7142 82.1358 35.953C82.5323 36.169 82.8623 36.487 83.0908 36.8734C83.3263 37.2757 83.4828 37.7183 83.5521 38.1781L86.5143 37.5538C86.3743 36.684 86.0245 35.8604 85.4945 35.1526C84.9749 34.441 84.2816 33.8711 83.4793 33.4957C82.5534 33.0673 81.539 32.859 80.5171 32.8874C79.4168 32.8753 78.3293 33.1222 77.3445 33.6078C76.4131 34.0739 75.6354 34.793 75.1027 35.6808C74.5377 36.6938 74.2582 37.8382 74.2933 38.9945V39.3307C74.244 40.4884 74.5245 41.6365 75.1027 42.6443C75.6256 43.5439 76.4055 44.2706 77.3445 44.7334C78.3322 45.21 79.4182 45.4538 80.5171 45.4457C81.5382 45.4752 82.5522 45.2697 83.4793 44.8454C84.282 44.4707 84.9754 43.9006 85.4945 43.1886C86.0079 42.4895 86.379 41.6985 86.5871 40.8594L83.6654 40.2511C83.5679 40.9615 83.2448 41.6229 82.7428 42.1401V42.1401ZM160.326 39.3467C160.387 40.2663 160.114 41.1772 159.557 41.916C159.284 42.2316 158.939 42.4783 158.551 42.6356C158.162 42.7929 157.741 42.8563 157.323 42.8204C156.976 42.8458 156.628 42.7991 156.3 42.6833C155.973 42.5675 155.673 42.3852 155.421 42.1481C155.177 41.8737 154.992 41.5539 154.875 41.2075C154.758 40.8611 154.713 40.4951 154.741 40.1311V33.2796H151.682V40.4192C151.667 41.3205 151.869 42.2123 152.273 43.0205C152.628 43.7527 153.19 44.3672 153.891 44.7894C154.639 45.2225 155.494 45.4389 156.36 45.4137C156.968 45.4346 157.575 45.3423 158.149 45.1416C158.561 44.9995 158.939 44.7731 159.257 44.4772C159.507 44.2467 159.715 43.9761 159.872 43.6768H160.301V47.3907H153.017V50.032H163.272V33.2156H160.212L160.326 39.3467ZM126.39 33.7439C125.459 33.2026 124.395 32.9256 123.315 32.9435C122.204 32.9285 121.11 33.2047 120.142 33.7439C119.243 34.2385 118.511 34.9847 118.038 35.8889C117.518 36.9018 117.262 38.0271 117.293 39.1626V39.4507C117.273 40.5927 117.552 41.7205 118.103 42.7244C118.6 43.6242 119.343 44.3675 120.247 44.8694C121.155 45.3235 122.15 45.5806 123.166 45.6234C124.182 45.6661 125.196 45.4937 126.139 45.1176C126.795 44.8244 127.38 44.3959 127.855 43.8609C128.235 43.4443 128.563 42.9849 128.834 42.4922L126.317 41.1956C126.096 41.665 125.779 42.0845 125.387 42.4282C124.844 42.8404 124.167 43.0399 123.485 42.9885C122.703 43.0118 121.942 42.7399 121.356 42.2281C121.072 41.9767 120.843 41.6699 120.684 41.3269C120.526 40.984 120.44 40.6123 120.434 40.2351H129.215V39.1626C129.233 38.0542 128.986 36.9572 128.494 35.961C128.036 35.0369 127.32 34.262 126.431 33.7279L126.39 33.7439ZM120.417 37.8819C120.501 37.2394 120.821 36.6497 121.316 36.2251C121.871 35.7784 122.576 35.5554 123.29 35.6008C123.989 35.5629 124.676 35.7857 125.217 36.2251C125.455 36.4351 125.649 36.6895 125.788 36.9738C125.927 37.2581 126.008 37.5667 126.026 37.8819H120.417ZM145.41 20.2171C145.125 20.4704 144.793 20.6646 144.431 20.7884C144.07 20.9121 143.687 20.9628 143.305 20.9375C142.721 20.9451 142.144 20.8046 141.63 20.5293C141.123 20.2627 140.711 19.8494 140.448 19.3447C140.143 18.7563 139.996 18.1005 140.019 17.4397V17.2076C139.993 16.5466 140.141 15.89 140.448 15.3027C140.718 14.8007 141.128 14.3865 141.63 14.1101C142.145 13.8375 142.722 13.6998 143.305 13.7099C143.838 13.6927 144.367 13.8083 144.843 14.046C145.237 14.2625 145.564 14.5806 145.79 14.9665C146.019 15.3661 146.165 15.8069 146.219 16.2631L149.189 15.6388C149.041 14.7715 148.692 13.9497 148.169 13.2376C147.629 12.5357 146.923 11.9752 146.114 11.6048C145.186 11.1839 144.172 10.9785 143.152 11.0045C142.052 10.9886 140.964 11.2328 139.979 11.7169C139.044 12.1813 138.265 12.9043 137.737 13.7979C137.172 14.8108 136.893 15.9553 136.928 17.1116V17.4477C136.88 18.6053 137.16 19.7531 137.737 20.7614C138.258 21.6607 139.039 22.3854 139.979 22.8424C140.964 23.3263 142.051 23.5731 143.152 23.5628C144.173 23.5921 145.188 23.3837 146.114 22.9545C146.92 22.585 147.614 22.0139 148.129 21.2976C148.64 20.5981 149.008 19.807 149.213 18.9685L146.251 18.2801C146.202 19.0049 145.889 19.6875 145.369 20.2011L145.41 20.2171ZM112.016 34.6243H111.587C111.396 34.3231 111.159 34.0531 110.883 33.8239C110.528 33.5418 110.122 33.3298 109.686 33.1996C109.092 33.0114 108.471 32.9275 107.848 32.9515C106.882 32.9427 105.933 33.1992 105.106 33.6924C104.278 34.1855 103.606 34.8961 103.162 35.7449C102.642 36.7718 102.386 37.9101 102.418 39.0585V39.4427C102.386 40.5911 102.642 41.7295 103.162 42.7564C103.621 43.6251 104.32 44.3469 105.178 44.8374C105.995 45.3096 106.926 45.5582 107.873 45.5578C108.746 45.6155 109.618 45.4208 110.382 44.9975C110.896 44.689 111.33 44.2671 111.652 43.7649H112.081V45.2216H115.092V28.4132H112.041V34.7044L112.016 34.6243ZM112.016 39.3547C112.054 39.8396 111.989 40.3268 111.826 40.7856C111.663 41.2444 111.405 41.6647 111.07 42.02C110.421 42.5921 109.583 42.9083 108.714 42.9083C107.846 42.9083 107.007 42.5921 106.359 42.02C106.027 41.6675 105.771 41.2512 105.608 40.7967C105.445 40.3423 105.378 39.8596 105.412 39.3787V39.1306C105.377 38.6495 105.443 38.1664 105.606 37.7118C105.769 37.2572 106.025 36.8409 106.359 36.4892C107.01 35.9121 107.853 35.5929 108.726 35.5929C109.6 35.5929 110.443 35.9121 111.094 36.4892C111.424 36.8423 111.677 37.2594 111.836 37.7141C111.994 38.1688 112.056 38.6511 112.016 39.1306V39.3547ZM135.544 23.2506V20.7614H133.925C133.876 20.5271 133.855 20.2881 133.86 20.049V15.6068C133.902 14.9699 133.8 14.3317 133.561 13.739C133.321 13.1463 132.951 12.614 132.476 12.1811C131.412 11.3486 130.077 10.9275 128.721 10.9965C127.813 10.9707 126.91 11.1287 126.066 11.4607C125.406 11.7345 124.818 12.1565 124.351 12.6933C123.925 13.1832 123.608 13.7558 123.42 14.3742L126.253 15.3107C126.353 14.8041 126.604 14.3387 126.973 13.974C127.453 13.5941 128.06 13.4082 128.673 13.4537C128.978 13.429 129.286 13.4644 129.577 13.5578C129.869 13.6512 130.139 13.8008 130.372 13.998C130.554 14.1798 130.695 14.3965 130.789 14.6347C130.882 14.8729 130.925 15.1275 130.914 15.3827V16.055H127.612C126.783 16.0379 125.958 16.182 125.184 16.4792C124.536 16.7398 123.975 17.1752 123.566 17.7359C123.15 18.3407 122.942 19.0622 122.975 19.7929C122.956 20.5295 123.162 21.2547 123.566 21.8739C123.972 22.4473 124.533 22.8965 125.184 23.1706C125.913 23.4778 126.699 23.6305 127.491 23.6188C128.173 23.6526 128.854 23.5322 129.482 23.2666C129.894 23.0826 130.259 22.809 130.55 22.4662C130.731 22.2209 130.875 21.9514 130.979 21.6658H131.432L131.497 23.2666H133.488L135.544 23.2506ZM130.922 18.5283C130.939 18.8818 130.875 19.2345 130.735 19.5602C130.595 19.8858 130.382 20.1761 130.113 20.4092C129.528 20.9015 128.777 21.1586 128.009 21.1296C127.48 21.1636 126.955 21.0198 126.52 20.7214C126.355 20.5996 126.222 20.4413 126.13 20.2591C126.039 20.077 125.992 19.8762 125.994 19.6728C125.986 19.4768 126.028 19.282 126.116 19.106C126.203 18.93 126.334 18.7782 126.495 18.6643C126.887 18.3994 127.357 18.2725 127.831 18.3042H130.906V18.5283H130.922ZM109.03 22.5303C109.48 22.1953 109.841 21.7574 110.082 21.2541C110.323 20.7508 110.437 20.1972 110.414 19.6408C110.458 18.921 110.23 18.2107 109.775 17.6478C109.302 17.1264 108.703 16.7324 108.035 16.5033C107.232 16.2237 106.406 16.0147 105.566 15.8789L104.886 15.7669C104.428 15.7007 103.984 15.5572 103.575 15.3427C103.423 15.258 103.297 15.133 103.213 14.9817C103.129 14.8304 103.089 14.6588 103.098 14.4862C103.1 14.326 103.142 14.1689 103.221 14.0291C103.3 13.8893 103.414 13.7713 103.551 13.6858C103.959 13.4653 104.422 13.3653 104.886 13.3977C105.403 13.3815 105.915 13.512 106.359 13.7739C106.576 13.9247 106.759 14.1173 106.898 14.3402C107.037 14.5631 107.129 14.8115 107.169 15.0705L110.017 14.1981C109.747 13.2365 109.127 12.4073 108.277 11.8689C107.273 11.2533 106.108 10.9442 104.927 10.9805C103.701 10.9242 102.489 11.252 101.463 11.917C101.03 12.2265 100.683 12.6388 100.454 13.1157C100.225 13.5927 100.121 14.1191 100.152 14.6463C100.117 15.3439 100.342 16.0299 100.783 16.5753C101.234 17.095 101.81 17.4941 102.458 17.7359C103.206 18.0332 103.981 18.2583 104.773 18.4082L105.445 18.5203C105.989 18.6013 106.516 18.7689 107.007 19.0165C107.156 19.1019 107.28 19.226 107.364 19.3754C107.448 19.5248 107.49 19.694 107.484 19.8649C107.483 20.049 107.435 20.2298 107.344 20.3907C107.254 20.5516 107.124 20.6873 106.966 20.7854C106.48 21.0748 105.914 21.2064 105.348 21.1616C104.91 21.1674 104.475 21.0998 104.061 20.9615C103.665 20.8357 103.317 20.5926 103.065 20.2651C102.765 19.8803 102.57 19.4255 102.499 18.9445L99.666 19.6648C99.7448 20.2486 99.9496 20.8087 100.267 21.3073C100.584 21.8058 101.005 22.2311 101.503 22.5543C102.663 23.2944 104.025 23.6633 105.404 23.6108C106.696 23.6807 107.974 23.3168 109.03 22.5783V22.5303ZM99.318 41.8919V37.4897C99.3618 36.8526 99.2602 36.214 99.0206 35.621C98.781 35.028 98.4097 34.4959 97.934 34.064C96.8702 33.2287 95.5354 32.8047 94.1787 32.8714C93.2705 32.8479 92.3671 33.0087 91.5241 33.3437C90.8928 33.606 90.3281 34.0032 89.8706 34.507C89.413 35.0107 89.0739 35.6084 88.8776 36.2571L91.6455 37.2176C91.7456 36.7087 91.9963 36.2407 92.3658 35.8729C92.8465 35.4959 93.4538 35.3129 94.0654 35.3607C94.3705 35.3344 94.6778 35.3683 94.9695 35.4604C95.2613 35.5524 95.5317 35.7008 95.765 35.8969C95.9459 36.0808 96.0872 36.299 96.1804 36.5383C96.2736 36.7777 96.3168 37.0333 96.3073 37.2896V37.962H93.0052C92.1753 37.941 91.3496 38.0852 90.5772 38.3862C89.9297 38.6438 89.3687 39.0765 88.9585 39.6348C88.5425 40.2426 88.3353 40.9666 88.3677 41.6998C88.3486 42.4365 88.5545 43.1617 88.9585 43.7809C89.3649 44.3542 89.9257 44.8034 90.5772 45.0775C91.3071 45.381 92.092 45.5335 92.8838 45.5258C93.5713 45.5543 94.2561 45.4227 94.8828 45.1416C95.2955 44.958 95.6608 44.6844 95.9511 44.3412C96.1271 44.1073 96.2713 43.8517 96.3801 43.5808H96.8333L96.8981 45.1816H98.889H100.929V42.6603H99.3099C99.3099 42.6603 99.3099 42.4362 99.3099 41.94L99.318 41.8919ZM96.3477 40.4192C96.3611 40.7723 96.2954 41.124 96.1555 41.4491C96.0156 41.7742 95.8049 42.0648 95.5384 42.3001C94.9502 42.7869 94.2005 43.0407 93.4341 43.0125C92.9069 43.0428 92.3841 42.9023 91.9449 42.6123C91.7806 42.4885 91.6475 42.3286 91.5562 42.1452C91.4649 41.9619 91.4179 41.7601 91.4189 41.5558C91.4122 41.3623 91.452 41.17 91.535 40.9947C91.618 40.8194 91.7419 40.6661 91.8964 40.5473C92.2905 40.2885 92.7597 40.1648 93.2318 40.1951H96.3558L96.3477 40.4192Z" fill="currentColor"></path>
    <path d="M20.2217 35.1846L25.28 30.1901L30.3222 35.1846L25.28 40.1711L20.2217 35.1846ZM10.9629 26.012L25.28 11.8529L39.5972 26.012L35.3401 30.2221L25.28 20.2891L15.22 30.2141L10.9629 26.012ZM25.28 2L1 26.012L25.28 50.024L49.5601 26.012L25.28 2Z" fill="currentColor"></path>
  </g>
  <defs>
    <clipPath id="tcgvcfjixg-clip0_394_104">
      <rect width="163" height="48" transform="translate(1 2)"></rect>
    </clipPath>
  </defs>
</svg>