<svg width="141" height="49" xmlns="http://www.w3.org/2000/svg" viewBox="0 0 141 49" fill="none">
  <path d="M133.776 22.2334C137.923 22.2334 141 19.7001 141 16.6334C141 13.9668 139.261 12.5 135.782 11.8334L132.84 11.4334C130.832 11.1668 130.164 10.7668 130.164 9.70007V9.0334C130.164 7.8334 131.101 7.16674 133.375 7.16674C136.183 7.16674 136.853 7.8334 136.853 9.96674H140.599C140.331 6.6334 137.521 4.2334 133.375 4.2334C129.361 4.2334 126.552 6.6334 126.552 9.70007C126.552 12.1001 128.558 14.1001 131.769 14.6334L135.114 15.0334C136.853 15.3 137.254 15.7 137.254 16.6334V17.3001C137.254 18.6334 136.183 19.3001 133.642 19.3001C130.565 19.3001 129.763 18.5 129.763 16.1001H126.017C126.418 19.5668 129.228 22.2334 133.776 22.2334ZM117.054 22.2334C121.603 22.2334 124.278 19.5668 124.278 15.4334V4.50007H120.799V16.3668C120.799 18.3667 119.863 19.0334 117.187 19.0334C114.512 19.0334 113.575 18.2334 113.575 16.3668V4.50007H109.963V15.4334C109.83 19.4334 112.506 22.2334 117.054 22.2334ZM99.6629 22.2334C103.944 22.2334 107.556 18.9001 107.823 15.0334H103.944C103.81 17.8334 102.606 18.9001 99.6629 18.9001C96.1847 18.9001 95.1146 17.7001 95.1146 14.2334V12.1001C95.1146 8.76673 96.3185 7.56673 99.6629 7.56673C102.606 7.56673 103.81 8.6334 103.944 11.4334H107.823C107.556 7.56673 104.077 4.2334 99.6629 4.2334C94.7131 4.2334 91.235 8.10007 91.235 13.1667C91.235 18.2334 94.7131 22.2334 99.6629 22.2334ZM80.8005 18.9001C77.456 18.9001 75.8508 17.3001 75.8508 14.2334V12.1001C75.8508 9.0334 77.3223 7.56673 80.8005 7.56673C84.2787 7.56673 85.7502 9.16674 85.7502 12.1001V14.2334C85.7502 17.3001 84.1449 18.9001 80.8005 18.9001ZM57.3896 21.9668H61.0017V15.0334H69.8309V11.8334H61.0017V7.70007H70.6335V4.50007H57.3896V21.9668ZM80.8005 22.2334C85.8839 22.2334 89.496 18.3667 89.496 13.3001C89.496 8.2334 86.0177 4.36674 80.8005 4.36674C75.5832 4.36674 72.105 8.2334 72.105 13.3001C72.105 18.3667 75.717 22.2334 80.8005 22.2334Z" fill="currentColor"></path>
  <path d="M102.204 35.4337C103.676 34.5004 104.479 33.1671 104.479 31.8337C104.479 28.9004 102.338 27.0337 98.5929 27.0337H89.8975V44.5004H99.128C102.874 44.5004 104.881 42.3671 104.881 39.3004C105.014 37.5671 103.944 36.2338 102.204 35.4337ZM93.3756 29.8337H98.4591C100.465 29.8337 100.867 30.5004 100.867 31.5671V32.367C100.867 33.4338 100.6 33.9671 98.4591 33.9671H93.3756V29.8337ZM101.402 39.4338C101.402 40.6337 101.001 41.3004 98.7267 41.3004H93.3756V36.9004H98.7267C101.001 36.9004 101.402 37.5671 101.402 38.6338V39.4338Z" fill="currentColor"></path>
  <path d="M83.4762 26.8999H76.5198L71.5701 44.3666H75.3159L76.386 40.2333H83.4762L84.5464 44.3666H88.2921L83.4762 26.8999ZM77.1887 37.1666L79.0616 30.0999H80.9345L82.8073 37.1666H77.1887Z" fill="currentColor"></path>
  <path d="M57.3896 44.3666H69.9647V41.1666H61.0017V26.8999H57.3896V44.3666Z" fill="currentColor"></path>
  <path d="M48.1594 25.3L32.1062 23.5666L47.4905 18.6333C47.223 17.5667 46.9554 16.6334 46.554 15.5666L30.6347 20.7666L43.0759 9.56667C42.407 8.76666 41.7382 8.1 41.0693 7.3L28.093 19.0334L35.1831 3.16666C34.3804 2.76667 33.5778 2.36667 32.6414 2.1L25.4174 18.5V0.5C25.0161 0.5 24.6148 0.5 24.0797 0.5C23.6783 0.5 23.277 0.5 22.8757 0.5V14.5L17.1233 1.56667C15.2504 2.1 13.3776 2.89999 11.6385 3.96666L15.7856 13.3L8.16034 6.5C6.68881 7.7 5.48481 9.16667 4.41461 10.7667L12.5749 18.1L2.27419 14.7667C1.47153 16.3667 0.936432 18.1 0.535104 19.9667L11.5047 23.5666L0 24.5C0 26.2333 0.133776 27.9667 0.535104 29.5666L12.5749 28.3667L2.14042 34.3667C2.8093 35.8334 3.61196 37.3 4.68217 38.6334L15.6518 32.3666L8.29411 42.5C9.36432 43.5666 10.5683 44.5 11.906 45.3L19.6651 34.6333L16.8558 47.5667C18.1935 47.9667 19.6651 48.3667 21.2704 48.5L24.0797 35.0333L26.889 48.5C28.3605 48.3667 29.6983 48.1 31.036 47.5667L28.093 33.5667L36.5209 45.1667C37.591 44.5 38.6613 43.7 39.7315 42.9L30.9023 30.9L43.8786 38.3666C44.5474 37.3 45.2163 36.2334 45.7514 35.1666L32.3738 27.1666L47.7581 28.7667C48.0256 27.7 48.1594 26.5 48.1594 25.3Z" fill="currentColor"></path>
</svg>