<svg width="176" height="52" xmlns="http://www.w3.org/2000/svg" viewBox="0 0 176 52" fill="none">
  <path d="M46.9653 1H4.97727C3.92243 1 2.9108 1.42143 2.16492 2.17157C1.41903 2.92172 1 3.93913 1 5L1 47C1 48.0609 1.41903 49.0783 2.16492 49.8284C2.9108 50.5786 3.92243 51 4.97727 51H46.9653C48.0202 51 49.0318 50.5786 49.7777 49.8284C50.5236 49.0783 50.9426 48.0609 50.9426 47V5C50.9426 3.93913 50.5236 2.92172 49.7777 2.17157C49.0318 1.42143 48.0202 1 46.9653 1V1Z" fill="#1C1F20"></path>
  <path d="M31.5057 34.833H15.3381V13.5H11.2385V38.5H33.4625L31.5067 34.833H31.5057Z" fill="url(#iokfdqkgwr-paint0_linear_423_2)"></path>
  <path d="M40.7031 13.5H36.8123V34.48L25.4711 13.5H19.4784V31.875H23.3065V17.521L34.6497 38.5H40.7051V13.5H40.7031Z" fill="white"></path>
  <path d="M23.3076 22.75H19.4794V34H23.3076V22.75Z" fill="url(#iokfdqkgwr-paint1_linear_423_2)"></path>
  <path d="M63 32.8121V20H65.7318V30.5785H71.2706V32.8121H63V32.8121ZM75.6151 32.9931C74.9963 32.9931 74.4456 32.8874 73.962 32.6741C73.4944 32.4709 73.0956 32.1386 72.8132 31.7168C72.5358 31.292 72.3967 30.7625 72.3967 30.1283C72.3967 29.5939 72.4954 29.1456 72.6927 28.7835C72.8911 28.4203 73.1606 28.1277 73.501 27.9075C73.858 27.6791 74.25 27.5099 74.6617 27.4063C75.1133 27.2912 75.5733 27.2117 76.0375 27.1685C76.4925 27.1232 76.9466 27.069 77.3995 27.006C77.7449 26.9522 77.9946 26.8729 78.1495 26.7682C78.2257 26.7178 78.2874 26.6486 78.3284 26.5674C78.3694 26.4863 78.3884 26.3959 78.3834 26.3052V26.268C78.3834 25.8716 78.2581 25.5653 78.0054 25.348C77.7567 25.1317 77.4034 25.023 76.9455 25.023C76.4619 25.023 76.077 25.1297 75.7908 25.3421C75.5172 25.5336 75.3171 25.8113 75.2233 26.13L72.7372 25.9304C72.8635 25.346 73.1122 24.842 73.4823 24.4162C73.8697 23.9745 74.3613 23.6349 74.9134 23.4276C75.5026 23.1937 76.1845 23.0772 76.9583 23.0772C77.4794 23.0752 77.9987 23.1383 78.5039 23.2652C79.0003 23.3905 79.4395 23.5842 79.8224 23.8466C80.2093 24.1098 80.5133 24.4475 80.7373 24.8606C80.9594 25.2687 81.0709 25.7591 81.0709 26.3307V32.8121H78.5226V31.48H78.4466C78.2901 31.7809 78.0782 32.0501 77.8219 32.2738C77.5613 32.4989 77.2485 32.677 76.8823 32.8062C76.5171 32.9305 76.0937 32.9931 75.6141 32.9931H75.6151ZM76.3849 31.154C76.7797 31.154 77.1281 31.0767 77.431 30.9231C77.734 30.7645 77.9719 30.5511 78.1436 30.2849C78.3176 30.0141 78.4079 29.6987 78.4032 29.3776V28.3577C78.2945 28.4226 78.1777 28.4729 78.0558 28.5075C77.8956 28.5536 77.7336 28.5934 77.5702 28.6269C77.3896 28.6602 77.2087 28.6915 77.0274 28.7208L76.5359 28.7893C76.2201 28.8353 75.9437 28.9078 75.7088 29.0086C75.473 29.1084 75.2904 29.2435 75.1601 29.4148C75.0298 29.5812 74.9647 29.7906 74.9647 30.0412C74.9647 30.4033 75.0969 30.6813 75.3624 30.8731C75.6309 31.0601 75.9714 31.154 76.3839 31.154H76.3849ZM82.9777 32.8121V23.2025H85.5832V24.8792H85.6848C85.8625 24.2821 86.1586 23.8319 86.5741 23.5285C86.9886 23.22 87.4948 23.0568 88.013 23.0645C88.2972 23.0664 88.5803 23.0979 88.8578 23.1585V25.5232C88.6863 25.4768 88.5114 25.4435 88.3348 25.4234C88.132 25.3955 87.9276 25.3808 87.7229 25.3793C87.3281 25.3793 86.9738 25.4654 86.6629 25.6357C86.3559 25.8021 86.1122 26.037 85.9306 26.3365C85.7539 26.637 85.6661 26.9825 85.6661 27.375V32.8121H82.9777ZM92.5559 32.9931C91.9371 32.9931 91.3864 32.8874 90.9028 32.6741C90.4356 32.4707 90.0372 32.1384 89.755 31.7168C89.4767 31.292 89.3385 30.7625 89.3385 30.1283C89.3385 29.5939 89.4372 29.1456 89.6346 28.7835C89.832 28.4203 90.1014 28.1277 90.4419 27.9075C90.7988 27.6791 91.1908 27.5099 91.6025 27.4063C92.0541 27.2912 92.5141 27.2117 92.9783 27.1685C93.4333 27.1232 93.8874 27.069 94.3403 27.006C94.6857 26.9522 94.9364 26.8729 95.0914 26.7682C95.1675 26.7178 95.2292 26.6486 95.2702 26.5674C95.3112 26.4863 95.3302 26.3959 95.3253 26.3052V26.268C95.3253 25.8716 95.1989 25.5653 94.9463 25.348C94.6986 25.1317 94.3442 25.023 93.8863 25.023C93.4027 25.023 93.0178 25.1297 92.7316 25.3421C92.458 25.5336 92.258 25.8113 92.1641 26.13L89.679 25.9304C89.8053 25.346 90.054 24.842 90.4231 24.4162C90.8108 23.9744 91.3028 23.6347 91.8552 23.4276C92.4444 23.1937 93.1254 23.0772 93.8991 23.0772C94.4202 23.0752 94.9395 23.1383 95.4447 23.2652C95.9411 23.3905 96.3803 23.5842 96.7632 23.8466C97.1501 24.1098 97.4551 24.4475 97.6781 24.8606C97.9012 25.2687 98.0127 25.7591 98.0127 26.3307V32.8121H95.4625V31.48H95.3874C95.231 31.7809 95.0191 32.0502 94.7627 32.2738C94.5022 32.4989 94.1883 32.677 93.8222 32.8062C93.457 32.9305 93.0336 32.9931 92.5549 32.9931H92.5559ZM93.3257 31.154C93.7205 31.154 94.0699 31.0767 94.3719 30.9231C94.6749 30.7645 94.9127 30.5511 95.0854 30.2849C95.2582 30.0177 95.344 29.7153 95.344 29.3776V28.3577C95.2354 28.4226 95.1186 28.4729 94.9966 28.5075C94.8364 28.5536 94.6744 28.5935 94.511 28.6269C94.3304 28.6601 94.1498 28.6915 93.9682 28.7208L93.4767 28.7893C93.1609 28.8353 92.8856 28.9078 92.6497 29.0086C92.4148 29.1084 92.2312 29.2435 92.1009 29.4148C91.9707 29.5812 91.9055 29.7906 91.9055 30.0412C91.9055 30.4033 92.0388 30.6813 92.3033 30.8731C92.5727 31.0601 92.9132 31.154 93.3247 31.154H93.3257ZM108.607 23.2025L105.219 32.8121H102.19L98.8032 23.2025H101.642L103.654 30.0784H103.756L105.761 23.2025H108.607V23.2025ZM113.908 33C112.912 33 112.053 32.7994 111.334 32.399C110.626 32.0012 110.051 31.4051 109.681 30.6852C109.294 29.9423 109.101 29.0644 109.101 28.0513C109.101 27.0628 109.294 26.1946 109.681 25.4478C110.047 24.7236 110.614 24.1181 111.316 23.7027C112.021 23.2857 112.85 23.0772 113.801 23.0772C114.41 23.0719 115.015 23.1756 115.586 23.3836C116.131 23.5775 116.626 23.8872 117.037 24.2909C117.453 24.6952 117.777 25.2041 118.008 25.8178C118.24 26.4266 118.356 27.1391 118.356 27.9574V28.6895H110.174V27.0373H115.826C115.826 26.6537 115.742 26.3131 115.573 26.0175C115.41 25.7257 115.168 25.485 114.874 25.3225C114.56 25.1472 114.205 25.0589 113.845 25.0671C113.437 25.0671 113.075 25.161 112.76 25.348C112.453 25.5271 112.201 25.7842 112.028 26.0928C111.85 26.4081 111.756 26.7638 111.757 27.1254V28.6954C111.757 29.1711 111.845 29.5821 112.021 29.9286C112.203 30.2741 112.457 30.5413 112.785 30.7293C113.113 30.9162 113.502 31.0102 113.952 31.0102C114.251 31.0102 114.524 30.9681 114.772 30.8849C115.021 30.8017 115.233 30.6764 115.41 30.51C115.586 30.3436 115.72 30.1381 115.813 29.8963L118.299 30.0588C118.182 30.6347 117.914 31.1699 117.523 31.6111C117.136 32.0486 116.635 32.3912 116.021 32.6369C115.411 32.8786 114.707 32.999 113.908 32.999V33ZM122.619 20V32.8121H119.932V20H122.619ZM139.385 20V32.8121H137.025L131.405 24.747H131.31V32.8121H128.578V20H130.976L136.553 28.0572H136.666V20H139.385V20ZM145.83 33C144.833 33 143.976 32.7994 143.256 32.399C142.547 32.001 141.973 31.4049 141.603 30.6852C141.216 29.9423 141.023 29.0644 141.023 28.0513C141.023 27.0628 141.216 26.1946 141.603 25.4478C141.969 24.7236 142.536 24.1181 143.237 23.7027C143.944 23.2857 144.772 23.0772 145.722 23.0772C146.331 23.0719 146.936 23.1756 147.508 23.3836C148.053 23.5772 148.548 23.8869 148.96 24.2909C149.375 24.6952 149.7 25.2041 149.931 25.8178C150.162 26.4266 150.277 27.1391 150.277 27.9574V28.6895H142.095V27.0373H147.748C147.748 26.6537 147.664 26.3131 147.496 26.0175C147.332 25.7257 147.089 25.485 146.795 25.3225C146.482 25.147 146.127 25.0588 145.767 25.0671C145.359 25.0671 144.997 25.161 144.682 25.348C144.375 25.5268 144.122 25.784 143.95 26.0928C143.773 26.4011 143.683 26.7457 143.678 27.1254V28.6954C143.678 29.1711 143.767 29.5821 143.944 29.9286C144.125 30.2741 144.379 30.5413 144.707 30.7293C145.035 30.9162 145.424 31.0102 145.874 31.0102C146.172 31.0102 146.446 30.9681 146.695 30.8849C146.932 30.8097 147.15 30.6815 147.33 30.5102C147.51 30.3388 147.649 30.1289 147.735 29.8963L150.221 30.0588C150.103 30.6344 149.836 31.1696 149.445 31.6111C149.058 32.0486 148.558 32.3912 147.943 32.6369C147.334 32.8786 146.629 32.999 145.83 32.999V33ZM153.696 32.8121L151.059 23.2025H153.778L155.279 29.6585H155.368L156.932 23.2025H159.601L161.191 29.6213H161.273L162.749 23.2025H165.461L162.831 32.8121H159.986L158.32 26.7682H158.2L156.534 32.8121H153.696ZM174.78 25.9431L172.319 26.0928C172.278 25.8857 172.185 25.6921 172.048 25.53C171.901 25.3526 171.713 25.213 171.499 25.1229C171.247 25.0127 170.973 24.9592 170.698 24.9663C170.281 24.9663 169.93 25.0544 169.645 25.2296C169.359 25.4008 169.216 25.6299 169.216 25.9176C169.216 26.1467 169.308 26.3414 169.493 26.5C169.678 26.6576 169.995 26.7848 170.445 26.8817L172.199 27.2311C173.142 27.423 173.844 27.7323 174.306 28.1571C174.769 28.5828 175 29.1417 175 29.8337C175 30.464 174.813 31.017 174.439 31.4917C174.069 31.9674 173.56 32.3384 172.913 32.6056C172.269 32.8688 171.527 33 170.685 33C169.403 33 168.381 32.7357 167.62 32.2052C166.863 31.6708 166.419 30.9456 166.288 30.0285L168.931 29.8905C169.011 30.278 169.205 30.5746 169.512 30.7792C169.819 30.9788 170.212 31.0787 170.692 31.0787C171.163 31.0787 171.541 30.9896 171.827 30.8105C172.117 30.6265 172.264 30.3906 172.269 30.1028C172.268 29.9866 172.24 29.8722 172.186 29.7689C172.132 29.6657 172.054 29.5765 171.959 29.5087C171.758 29.3502 171.447 29.2298 171.026 29.1466L169.348 28.8138C168.401 28.6269 167.698 28.3009 167.235 27.838C166.776 27.375 166.547 26.7848 166.547 26.0674C166.547 25.4508 166.716 24.9183 167.051 24.472C167.393 24.0257 167.869 23.6821 168.483 23.4404C169.102 23.1986 169.825 23.0772 170.654 23.0772C171.877 23.0772 172.841 23.3337 173.543 23.8466C174.25 24.3594 174.661 25.0583 174.78 25.9431V25.9431Z" fill="#1C1F20"></path>
  <defs>
    <linearGradient id="iokfdqkgwr-paint0_linear_423_2" x1="11.2375" y1="26" x2="33.4685" y2="26" gradientUnits="userSpaceOnUse">
      <stop stop-color="white"></stop>
      <stop offset="0.760417" stop-color="#1C1F20"></stop>
    </linearGradient>
    <linearGradient id="iokfdqkgwr-paint1_linear_423_2" x1="21.3995" y1="22.756" x2="21.3995" y2="34.013" gradientUnits="userSpaceOnUse">
      <stop stop-color="white"></stop>
      <stop offset="0.84375" stop-color="#1C1F20"></stop>
    </linearGradient>
  </defs>
</svg>