<svg width="166" height="52" xmlns="http://www.w3.org/2000/svg" viewBox="0 0 166 52" fill="none">
  <g clip-path="url(#lzysgmzcts-clip0_394_85)">
    <path d="M18.59 15.52H13.94C13.8074 15.52 13.6802 15.5727 13.5864 15.6664C13.4927 15.7602 13.44 15.8874 13.44 16.02V17.46C12.177 16.4736 10.6003 15.9764 9 16.06C4.51 16.06 1 19.96 1 24.94C1 29.92 4.51 33.83 9 33.83C10.6003 33.9136 12.177 33.4164 13.44 32.43V34.91C13.44 37.48 12.24 38.79 9.88 38.79C9.00552 38.7706 8.15441 38.5039 7.42526 38.0207C6.69611 37.5376 6.11873 36.8578 5.76 36.06C5.69118 35.946 5.58126 35.8628 5.45289 35.8274C5.32451 35.7921 5.18747 35.8073 5.07 35.87L1.44 37.92C1.32673 37.9869 1.24371 38.0951 1.2083 38.2218C1.1729 38.3485 1.18784 38.484 1.25 38.6C2.05833 40.2245 3.32378 41.5775 4.89075 42.4924C6.45773 43.4074 8.25792 43.8445 10.07 43.75C15.72 43.75 19.07 40.45 19.07 34.91V16C19.0651 15.8743 19.0129 15.755 18.9239 15.6661C18.835 15.5771 18.7157 15.5249 18.59 15.52V15.52ZM13.53 24.94C13.53 27.31 12.29 28.73 10.21 28.73C8.13 28.73 6.8 27.28 6.8 24.94C6.8 22.6 8.11 21.16 10.21 21.16C12.31 21.16 13.53 22.57 13.53 24.94V24.94Z" fill="currentColor"></path>
    <path d="M40.8 13.59H36.14C36.0074 13.59 35.8802 13.6427 35.7864 13.7364C35.6927 13.8302 35.64 13.9574 35.64 14.09V14.56C34.4133 13.579 32.8683 13.0842 31.3 13.17C26.79 13.17 23.39 16.99 23.39 22.06C23.39 27.13 26.79 30.94 31.3 30.94C32.8671 31.0286 34.4119 30.5374 35.64 29.56V30C35.64 30.1326 35.6927 30.2598 35.7864 30.3536C35.8802 30.4473 36.0074 30.5 36.14 30.5H40.8C40.9326 30.5 41.0598 30.4473 41.1536 30.3536C41.2473 30.2598 41.3 30.1326 41.3 30V14.09C41.2974 13.9582 41.2439 13.8325 41.1507 13.7393C41.0575 13.6461 40.9318 13.5926 40.8 13.59ZM35.73 22.06C35.73 24.46 34.56 25.84 32.51 25.84C30.46 25.84 29.19 24.43 29.19 22.06C29.19 19.69 30.43 18.27 32.51 18.27C34.59 18.27 35.73 19.65 35.73 22.06Z" fill="currentColor"></path>
    <path d="M56 16.06C55.2329 16.036 54.4697 16.1791 53.7634 16.4796C53.0571 16.7801 52.4247 17.2306 51.91 17.8V17C51.91 16.9335 51.8968 16.8676 51.871 16.8063C51.8453 16.745 51.8075 16.6894 51.76 16.6429C51.7125 16.5963 51.6562 16.5597 51.5944 16.5352C51.5326 16.5106 51.4665 16.4987 51.4 16.5H46.75C46.6174 16.5 46.4902 16.5527 46.3964 16.6464C46.3027 16.7402 46.25 16.8674 46.25 17V32.91C46.25 33.0426 46.3027 33.1698 46.3964 33.2636C46.4902 33.3573 46.6174 33.41 46.75 33.41H51.4C51.4665 33.4113 51.5326 33.3994 51.5944 33.3748C51.6562 33.3503 51.7125 33.3137 51.76 33.2671C51.8075 33.2206 51.8453 33.165 51.871 33.1037C51.8968 33.0424 51.91 32.9765 51.91 32.91V25.41C51.91 21.69 53.67 21.25 54.99 21.25C55.6074 21.2421 56.2154 21.4011 56.75 21.71C56.816 21.7398 56.8876 21.7552 56.96 21.7552C57.0324 21.7552 57.104 21.7398 57.17 21.71C57.2364 21.6855 57.2967 21.6469 57.3468 21.5968C57.3969 21.5467 57.4355 21.4864 57.46 21.42L58.95 17.42C58.992 17.3114 58.994 17.1913 58.9555 17.0813C58.917 16.9714 58.8406 16.8787 58.74 16.82C57.9167 16.313 56.9668 16.0496 56 16.06V16.06Z" fill="currentColor"></path>
    <path d="M72.63 18C71.0309 17.9136 69.4544 18.4072 68.19 19.39V8.5C68.19 8.36739 68.1373 8.24021 68.0436 8.14645C67.9498 8.05268 67.8226 8 67.69 8H63C62.8674 8 62.7402 8.05268 62.6464 8.14645C62.5527 8.24021 62.5 8.36739 62.5 8.5V34.83C62.5 34.9626 62.5527 35.0898 62.6464 35.1836C62.7402 35.2773 62.8674 35.33 63 35.33H67.66C67.7926 35.33 67.9198 35.2773 68.0135 35.1836C68.1073 35.0898 68.16 34.9626 68.16 34.83V34.36C69.4244 35.3428 71.0009 35.8364 72.6 35.75C77.08 35.75 80.6 31.85 80.6 26.87C80.6 21.89 77.11 18 72.63 18ZM74.83 26.88C74.83 29.21 73.52 30.66 71.42 30.66C69.32 30.66 68.1 29.25 68.1 26.88C68.1 24.51 69.34 23.1 71.42 23.1C73.5 23.1 74.83 24.54 74.83 26.87V26.88Z" fill="currentColor"></path>
    <path d="M101.58 15.52H96.93C96.8635 15.5187 96.7974 15.5306 96.7356 15.5551C96.6738 15.5797 96.6174 15.6163 96.57 15.6629C96.5225 15.7094 96.4847 15.765 96.459 15.8263C96.4332 15.8876 96.42 15.9535 96.42 16.02V16.48C95.1928 15.5009 93.6473 15.0095 92.08 15.1C87.58 15.1 84.18 18.92 84.18 23.98C84.18 29.04 87.58 32.87 92.08 32.87C93.6486 32.9577 95.1942 32.4627 96.42 31.48V32C96.4226 32.1335 96.4775 32.2607 96.5729 32.3542C96.6682 32.4477 96.7964 32.5 96.93 32.5H101.58C101.713 32.5 101.84 32.4473 101.934 32.3536C102.027 32.2598 102.08 32.1326 102.08 32V16C102.075 15.8709 102.02 15.7488 101.927 15.6593C101.833 15.5698 101.709 15.5199 101.58 15.52V15.52ZM96.52 24C96.52 26.41 95.34 27.79 93.29 27.79C91.24 27.79 90 26.35 90 24C90 21.65 91.24 20.22 93.31 20.22C95.38 20.22 96.52 21.58 96.52 24Z" fill="currentColor"></path>
    <path d="M117.17 18C115.532 17.9056 113.923 18.4587 112.69 19.54V18.92C112.691 18.8535 112.679 18.7874 112.655 18.7256C112.63 18.6638 112.594 18.6075 112.547 18.56C112.501 18.5125 112.445 18.4747 112.384 18.449C112.322 18.4232 112.257 18.41 112.19 18.41H107.53C107.396 18.4126 107.269 18.4675 107.176 18.5629C107.082 18.6582 107.03 18.7865 107.03 18.92V34.83C107.03 34.9626 107.083 35.0898 107.176 35.1836C107.27 35.2773 107.397 35.33 107.53 35.33H112.19C112.323 35.33 112.45 35.2773 112.544 35.1836C112.637 35.0898 112.69 34.9626 112.69 34.83V26.26C112.69 24.26 113.69 23.18 115.69 23.18C116.006 23.1358 116.329 23.1662 116.631 23.2686C116.934 23.3711 117.208 23.5428 117.432 23.7701C117.657 23.9974 117.825 24.274 117.924 24.5778C118.022 24.8816 118.048 25.2043 118 25.52V34.83C118 34.9626 118.053 35.0898 118.146 35.1836C118.24 35.2773 118.367 35.33 118.5 35.33H123.16C123.293 35.33 123.42 35.2773 123.514 35.1836C123.607 35.0898 123.66 34.9626 123.66 34.83V25.19C123.68 20.81 121.13 18 117.17 18Z" fill="currentColor"></path>
    <path d="M142.85 13.59H129.39C129.258 13.5926 129.133 13.6461 129.039 13.7393C128.946 13.8325 128.893 13.9582 128.89 14.09V18C128.89 18.1326 128.943 18.2598 129.036 18.3536C129.13 18.4473 129.257 18.5 129.39 18.5H134.83L127.9 29.57C127.848 29.6505 127.82 29.7442 127.82 29.84V30C127.82 30.1326 127.873 30.2598 127.966 30.3536C128.06 30.4473 128.187 30.5 128.32 30.5H142.44C142.573 30.5 142.7 30.4473 142.794 30.3536C142.887 30.2598 142.94 30.1326 142.94 30V26.16C142.94 26.0274 142.887 25.9002 142.794 25.8064C142.7 25.7127 142.573 25.66 142.44 25.66H136.44L143.32 14.55C143.371 14.4689 143.398 14.3756 143.4 14.28V14.09C143.399 14.0204 143.383 13.9517 143.355 13.8883C143.326 13.8248 143.285 13.7679 143.233 13.7211C143.182 13.6742 143.121 13.6384 143.055 13.6159C142.989 13.5933 142.919 13.5845 142.85 13.59V13.59Z" fill="currentColor"></path>
    <path d="M156.05 16.06C154.306 16.1228 152.62 16.6973 151.2 17.712C149.781 18.7267 148.691 20.1366 148.067 21.7662C147.444 23.3957 147.313 25.1727 147.692 26.8759C148.072 28.579 148.943 30.133 150.2 31.344C151.456 32.5551 153.04 33.3698 154.756 33.6865C156.472 34.0033 158.243 33.8081 159.849 33.1253C161.454 32.4426 162.824 31.3024 163.786 29.8469C164.748 28.3913 165.261 26.6848 165.26 24.94C165.265 23.7444 165.028 22.5601 164.562 21.4587C164.097 20.3573 163.414 19.3616 162.553 18.5317C161.692 17.7018 160.672 17.0549 159.554 16.6301C158.437 16.2053 157.245 16.0114 156.05 16.06V16.06ZM156.05 28.87C153.98 28.87 152.64 27.33 152.64 24.94C152.64 22.55 154 21 156.05 21C158.1 21 159.46 22.54 159.46 24.92C159.46 27.3 158.12 28.87 156.05 28.87Z" fill="currentColor"></path>
  </g>
  <defs>
    <clipPath id="lzysgmzcts-clip0_394_85">
      <rect width="164.26" height="35.75" fill="" transform="translate(1 8)"></rect>
    </clipPath>
  </defs>
</svg>