<svg width="118" height="52" xmlns="http://www.w3.org/2000/svg" viewBox="0 0 118 52" fill="none">
  <g clip-path="url(#kqdirmeybr-clip0_394_114)">
    <path d="M18.458 5.9711C18.395 5.96313 18.331 5.96938 18.2708 5.98939C18.2105 6.0094 18.1556 6.04266 18.11 6.08671L17.356 6.60694C16.5521 6.18337 15.6553 5.96492 14.746 5.9711C12.368 5.9711 8.772 7.82081 8.772 11.1734C8.772 16.3757 16.602 18.8035 16.602 23.8902C16.602 27.5896 12.948 30.0751 9.7 30.0751C6.8 30.0751 3.726 28.341 3.726 24.6994C3.726 22.0405 5.35 20.2486 7.206 20.2486C7.44869 20.2242 7.69379 20.2511 7.92541 20.3272C8.15703 20.4034 8.36999 20.5273 8.55047 20.6908C8.73095 20.8543 8.87492 21.0539 8.97304 21.2764C9.07115 21.499 9.12122 21.7396 9.12 21.9827C9.13914 22.1671 9.11207 22.3535 9.04121 22.525C8.97036 22.6965 8.85793 22.8478 8.714 22.9653C8.84514 23.1532 9.01807 23.3083 9.21928 23.4186C9.4205 23.5289 9.64457 23.5914 9.874 23.6012C10.108 23.5868 10.3367 23.5255 10.5463 23.4208C10.7559 23.3162 10.9421 23.1704 11.0938 22.9923C11.2455 22.8141 11.3595 22.6072 11.4289 22.3841C11.4984 22.1609 11.5219 21.9261 11.498 21.6936C11.382 20.0751 9.41 19.0925 7.38 19.0925C4.19 19.0347 1 21.289 1 24.7572C1 28.8035 5.35 31.4624 9.642 31.4624C14.166 31.4624 19.792 28.341 19.792 22.7919C19.792 17.0694 12.136 13.948 12.136 10.0751C12.1501 9.7332 12.232 9.39742 12.3769 9.08712C12.5217 8.77683 12.7268 8.49816 12.9801 8.26714C13.2335 8.03613 13.5302 7.85734 13.8532 7.74105C14.1761 7.62477 14.519 7.5733 14.862 7.5896C16.95 7.5896 18.11 9.78613 18.632 11.0578C18.6997 11.1952 18.8087 11.308 18.9439 11.3805C19.0791 11.4531 19.2337 11.4817 19.386 11.4624C19.85 11.4624 20.256 11.2312 20.256 10.8844V10.7688L18.98 6.49133C18.922 6.14451 18.748 5.9711 18.458 5.9711Z" fill="currentColor"></path>
    <path d="M33.654 9.4393C33.591 9.43133 33.527 9.43759 33.4668 9.4576C33.4065 9.47761 33.3516 9.51087 33.306 9.55491L32.61 10.0173C31.8387 9.56448 30.9524 9.34366 30.058 9.3815C24.78 9.3815 21.358 13.948 21.242 18.3988C21.126 22.5607 23.91 25.0462 27.448 25.0462C30.87 25.0462 33.77 22.6185 33.828 20.0751C33.886 18.5723 32.9 18.1098 32.088 18.1098C31.6053 18.0939 31.1353 18.2661 30.778 18.5898C30.4206 18.9136 30.2039 19.3635 30.174 19.8439H30.348C30.754 19.8439 31.044 20.1908 31.044 20.7688C31.044 21.9827 29.826 23.4855 27.796 23.4855C25.128 23.4855 24.374 21.1734 24.432 18.8035C24.548 14.9306 26.868 10.8844 30 10.8844C32.03 10.8844 32.784 12.5029 33.422 14.237C33.4762 14.372 33.5742 14.4852 33.7002 14.5585C33.8263 14.6318 33.9733 14.661 34.118 14.6416C34.3174 14.6685 34.5195 14.6172 34.6817 14.4986C34.844 14.3801 34.9538 14.2034 34.988 14.0058V13.8902L34.118 9.90173C34.1233 9.83967 34.1149 9.77721 34.0935 9.71871C34.072 9.66022 34.038 9.60709 33.9938 9.56305C33.9496 9.51901 33.8963 9.48512 33.8376 9.46375C33.7789 9.44237 33.7163 9.43403 33.654 9.4393" fill="currentColor"></path>
    <path d="M42.47 23.4277C40.092 23.4277 39.164 21.4046 39.164 18.9769C39.164 15.7399 41.02 10.8844 44.558 10.8844C46.82 10.8844 47.806 12.9075 47.806 15.3353C47.806 18.6301 46.008 23.4277 42.47 23.4277V23.4277ZM44.674 9.3815C39.396 9.3815 35.858 13.7746 35.858 18.3988C35.858 22.6763 38.584 24.9884 42.412 24.9884C47.632 24.9884 51.17 20.5376 51.17 15.9711C51.112 11.6936 48.328 9.3815 44.674 9.3815" fill="currentColor"></path>
    <path d="M79.532 13.7746L78.488 10.0751C78.4472 9.93097 78.3519 9.8082 78.222 9.73272C78.0922 9.65724 77.938 9.63494 77.792 9.67052C75.936 9.78613 74.08 9.84393 72.572 9.84393C70.948 9.84393 68.918 9.72832 67.526 9.67052C67.3823 9.65855 67.2385 9.69097 67.1139 9.76337C66.9894 9.83576 66.8903 9.94462 66.83 10.0751L66.192 11.6936L65.728 10.0751C65.6872 9.93097 65.5919 9.8082 65.462 9.73272C65.3322 9.65724 65.178 9.63494 65.032 9.67052C63.176 9.78613 61.32 9.84393 59.812 9.84393C58.188 9.84393 56.158 9.72832 54.766 9.67052C54.6223 9.65855 54.4785 9.69097 54.3539 9.76337C54.2294 9.83576 54.1303 9.94462 54.07 10.0751L52.504 13.7168C52.272 14.2948 53.896 14.4682 54.186 13.8324C54.824 12.5607 55.984 11.1734 57.144 11.1734C58.13 11.1734 58.246 11.8092 58.072 13.0231C57.84 14.7572 57.028 19.4393 56.622 21.1734C56.39 22.2717 56.1 23.0231 55.172 23.0231C54.824 23.0231 54.65 23.1387 54.65 23.4856L54.534 24.0636C54.5167 24.1224 54.5146 24.1846 54.5278 24.2444C54.541 24.3042 54.5692 24.3598 54.6097 24.4059C54.6501 24.452 54.7016 24.4871 54.7594 24.5081C54.8171 24.5292 54.8793 24.5353 54.94 24.526C56.7144 24.3526 58.5016 24.3526 60.276 24.526C60.624 24.526 60.798 24.4104 60.798 24.0636L60.914 23.4856C60.972 23.1387 60.856 23.0231 60.508 23.0231C59.58 23.0231 59.58 22.2139 59.696 21.1734C59.928 19.4393 60.798 14.7572 61.146 13.0231C61.378 11.9827 61.668 11.2312 62.48 11.1734C63.698 11.0578 64.336 12.5029 65.032 13.8902C65.1493 14.0317 65.3031 14.1388 65.4768 14.1999C65.6505 14.261 65.8376 14.2738 66.018 14.237C66.1888 14.2511 66.3606 14.2273 66.5211 14.1673C66.6815 14.1074 66.8266 14.0127 66.946 13.8902C67.584 12.6185 68.744 11.2312 69.904 11.2312C70.89 11.2312 71.006 11.8671 70.832 13.0809C70.6 14.815 69.788 19.4971 69.382 21.2312C69.15 22.3295 68.86 23.0809 67.932 23.0809C67.584 23.0809 67.41 23.1965 67.41 23.5434L67.294 24.1214C67.2767 24.1802 67.2746 24.2424 67.2878 24.3022C67.301 24.362 67.3292 24.4176 67.3697 24.4637C67.4101 24.5098 67.4616 24.5449 67.5194 24.566C67.5771 24.587 67.6393 24.5931 67.7 24.5838C69.4744 24.4104 71.2616 24.4104 73.036 24.5838C73.384 24.5838 73.558 24.4682 73.558 24.1214L73.674 23.5434C73.732 23.1965 73.616 23.0809 73.268 23.0809C72.34 23.0809 72.34 22.2717 72.456 21.2312C72.688 19.4971 73.558 14.815 73.906 13.0809C74.138 12.0405 74.428 11.289 75.24 11.2312C76.458 11.1156 77.096 12.5607 77.792 13.948C78.14 14.526 79.648 14.2948 79.532 13.7746" fill="currentColor"></path>
    <path d="M86.956 10.6532L87.072 10.0751C87.13 9.72832 87.014 9.55491 86.666 9.61271C84.911 9.78623 83.143 9.78623 81.388 9.61271C81.04 9.61271 80.866 9.72832 80.866 10.0751L80.75 10.6532C80.7327 10.712 80.7306 10.7742 80.7438 10.834C80.757 10.8938 80.7851 10.9493 80.8256 10.9954C80.8661 11.0416 80.9176 11.0767 80.9754 11.0977C81.0331 11.1187 81.0952 11.1249 81.156 11.1156C82.084 11.1156 82.084 11.9249 81.968 13.0231C81.736 14.7572 80.866 19.4971 80.518 21.2312C80.286 22.3295 79.996 23.1387 79.068 23.1387C78.72 23.1387 78.546 23.2543 78.546 23.6011L78.43 24.1792C78.4127 24.238 78.4106 24.3002 78.4238 24.36C78.437 24.4198 78.4652 24.4754 78.5056 24.5215C78.5461 24.5676 78.5976 24.6027 78.6554 24.6237C78.7131 24.6448 78.7752 24.6509 78.836 24.6416C80.591 24.4682 82.359 24.4682 84.114 24.6416C84.462 24.6416 84.636 24.526 84.636 24.1792L84.752 23.6011C84.81 23.2543 84.694 23.1387 84.346 23.1387C83.418 23.1387 83.418 22.3295 83.534 21.2312C83.766 19.4971 84.636 14.7572 84.984 13.0231C85.216 11.9249 85.506 11.1156 86.434 11.1156C86.782 11.1734 86.956 11 86.956 10.6532Z" fill="currentColor"></path>
    <path d="M93.626 11.1734C95.25 11.1734 96.178 12.1561 96.932 13.4277C97.022 13.5581 97.1437 13.6635 97.2857 13.7343C97.4277 13.805 97.5854 13.8388 97.744 13.8324C98.15 13.8324 98.672 13.5434 98.672 13.1965V13.0809L97.802 10.0173C97.8004 9.90421 97.7655 9.79402 97.7017 9.70046C97.6379 9.60689 97.5479 9.53405 97.4429 9.49097C97.3379 9.44789 97.2226 9.43646 97.1111 9.4581C96.9997 9.47974 96.8971 9.5335 96.816 9.61272L96.12 10.0751C95.3183 9.64576 94.4201 9.42694 93.51 9.43931C91.19 9.43931 88.348 10.8266 88.348 13.6012C88.348 17.5318 94.264 18.3988 94.264 21.289C94.264 22.5029 93.336 23.4277 91.77 23.4277C89.972 23.4277 89.16 22.4451 89.16 21.4624C89.1464 21.1836 89.2321 20.9089 89.4018 20.6868C89.5716 20.4647 89.8146 20.3095 90.088 20.2486C89.9502 19.9556 89.7271 19.7108 89.4479 19.5459C89.1686 19.3809 88.846 19.3035 88.522 19.3237C88.2235 19.3265 87.9286 19.3892 87.6549 19.5078C87.3812 19.6265 87.1342 19.7988 86.9286 20.0145C86.723 20.2302 86.563 20.4848 86.4581 20.7634C86.3532 21.0419 86.3056 21.3386 86.318 21.6358C86.318 24.1214 89.392 25.0462 91.77 25.0462C94.902 25.0462 97.57 23.3699 97.57 20.3642C97.57 16.3179 91.712 14.9884 91.712 12.6763C91.712 11.6358 92.814 11.1734 93.626 11.1734" fill="currentColor"></path>
    <path d="M116.014 9.61271C114.24 9.78633 112.452 9.78633 110.678 9.61271C110.33 9.61271 110.156 9.72832 110.156 10.0751L110.04 10.6532C110.023 10.712 110.021 10.7742 110.034 10.834C110.047 10.8938 110.075 10.9493 110.116 10.9954C110.156 11.0416 110.208 11.0767 110.265 11.0977C110.323 11.1187 110.385 11.1249 110.446 11.1156C111.374 11.1156 111.374 11.9249 111.258 13.0231C111.142 13.8324 110.91 15.104 110.736 16.2023C110.736 16.2679 110.721 16.3328 110.694 16.3925C110.667 16.4523 110.628 16.5058 110.578 16.5494C110.529 16.593 110.471 16.6258 110.408 16.6457C110.346 16.6655 110.279 16.672 110.214 16.6647H104.704C104.356 16.6647 104.24 16.5491 104.298 16.2023C104.472 15.104 104.704 13.8902 104.936 13.0231C105.168 11.9249 105.458 11.1156 106.386 11.1156C106.734 11.1156 106.908 11 106.908 10.6532L107.024 10.0751C107.082 9.72832 106.966 9.55491 106.618 9.61271C104.844 9.78633 103.056 9.78633 101.282 9.61271C100.934 9.61271 100.76 9.72832 100.76 10.0751L100.644 10.6532C100.627 10.712 100.625 10.7742 100.638 10.834C100.651 10.8938 100.679 10.9493 100.72 10.9954C100.76 11.0416 100.812 11.0767 100.869 11.0977C100.927 11.1187 100.989 11.1249 101.05 11.1156C101.978 11.1156 101.978 11.9249 101.862 13.0231C101.63 14.7572 100.76 19.4971 100.412 21.2312C100.18 22.3295 99.89 23.1387 98.962 23.1387C98.614 23.1387 98.44 23.2543 98.44 23.6011L98.324 24.1792C98.3067 24.238 98.3046 24.3002 98.3178 24.36C98.331 24.4198 98.3592 24.4754 98.3996 24.5215C98.4401 24.5676 98.4916 24.6027 98.5494 24.6237C98.6071 24.6448 98.6692 24.6509 98.73 24.6416C100.504 24.4682 102.292 24.4682 104.066 24.6416C104.414 24.6416 104.588 24.526 104.588 24.1792L104.704 23.6011C104.762 23.2543 104.646 23.1387 104.298 23.1387C103.37 23.1387 103.37 22.3295 103.486 21.2312C103.544 20.711 103.776 19.5549 103.834 19.0347C103.834 18.969 103.849 18.9042 103.876 18.8444C103.903 18.7847 103.942 18.7312 103.992 18.6876C104.041 18.644 104.099 18.6112 104.162 18.5913C104.224 18.5715 104.291 18.565 104.356 18.5722H109.808C110.156 18.5722 110.272 18.6879 110.214 19.0347L109.808 21.2312C109.576 22.3295 109.286 23.1387 108.358 23.1387C108.01 23.1387 107.836 23.2543 107.836 23.6011L107.72 24.1792C107.703 24.238 107.701 24.3002 107.714 24.36C107.727 24.4198 107.755 24.4754 107.796 24.5215C107.836 24.5676 107.888 24.6027 107.945 24.6237C108.003 24.6448 108.065 24.6509 108.126 24.6416C109.9 24.4682 111.688 24.4682 113.462 24.6416C113.81 24.6416 113.984 24.526 113.984 24.1792L114.1 23.6011C114.158 23.2543 114.042 23.1387 113.694 23.1387C112.766 23.1387 112.766 22.3295 112.882 21.2312C113.114 19.4971 113.984 14.7572 114.332 13.0231C114.564 11.9249 114.854 11.1156 115.782 11.1156C116.13 11.1156 116.304 11 116.304 10.6532L116.42 10.0751C116.478 9.78613 116.362 9.61271 116.014 9.61271" fill="currentColor"></path>
    <path d="M54.824 28.2254C53.069 28.3989 51.301 28.3989 49.546 28.2254C49.198 28.2254 49.024 28.341 49.024 28.6879L48.908 29.2659C48.8907 29.3247 48.8886 29.3869 48.9018 29.4467C48.915 29.5065 48.9432 29.5621 48.9837 29.6082C49.0241 29.6543 49.0756 29.6895 49.1334 29.7105C49.1911 29.7315 49.2532 29.7376 49.314 29.7283C50.242 29.7283 50.242 30.5376 50.126 31.6358C49.894 33.3699 49.024 38.1098 48.676 39.8439C48.444 40.9422 48.154 41.7514 47.226 41.7514C46.878 41.7514 46.704 41.8671 46.704 42.2139L46.588 42.7919C46.5707 42.8507 46.5686 42.9129 46.5818 42.9727C46.595 43.0325 46.6232 43.0881 46.6637 43.1342C46.7041 43.1803 46.7556 43.2155 46.8134 43.2365C46.8711 43.2575 46.9332 43.2636 46.994 43.2543C48.749 43.0809 50.517 43.0809 52.272 43.2543C52.62 43.2543 52.794 43.1387 52.794 42.7919L52.91 42.2139C52.968 41.8671 52.852 41.7514 52.504 41.7514C51.576 41.7514 51.576 40.9422 51.692 39.8439C51.924 38.1098 52.794 33.3699 53.142 31.6358C53.374 30.5376 53.664 29.7283 54.592 29.7283C54.94 29.7283 55.114 29.6127 55.114 29.2659L55.23 28.6879C55.23 28.341 55.114 28.2254 54.824 28.2254" fill="currentColor"></path>
    <path d="M69.324 32.3873L68.28 28.6879C68.2392 28.5437 68.1438 28.4209 68.014 28.3454C67.8842 28.27 67.73 28.2477 67.584 28.2832C65.728 28.3988 63.872 28.4566 62.364 28.4566C60.74 28.4566 58.71 28.341 57.318 28.2832C57.1743 28.2713 57.0305 28.3037 56.9059 28.3761C56.7814 28.4485 56.6823 28.5573 56.622 28.6879L55.114 32.3873C54.882 32.9653 56.506 33.1387 56.796 32.5029C57.434 31.2312 58.594 29.8439 59.754 29.8439C60.74 29.8439 60.856 30.4798 60.682 31.6936C60.45 33.4277 59.638 38.1098 59.232 39.8439C59 40.9422 58.71 41.7514 57.782 41.7514C57.434 41.7514 57.26 41.8671 57.26 42.2139L57.144 42.7919C56.97 43.1387 57.26 43.1965 57.434 43.1965C59.2084 43.0231 60.9956 43.0231 62.77 43.1965C63.118 43.1965 63.292 43.0809 63.292 42.7341L63.408 42.1561C63.466 41.8093 63.35 41.6936 63.002 41.6936C62.074 41.6936 62.074 40.8844 62.19 39.7861C62.422 38.052 63.292 33.3699 63.64 31.6358C63.872 30.5954 64.162 29.8439 64.974 29.7861C66.192 29.6705 66.83 31.1156 67.526 32.5029C67.932 33.0809 69.498 32.9075 69.324 32.3873" fill="currentColor"></path>
    <path d="M74.254 31.6936C74.486 30.5954 74.776 29.7861 75.704 29.7861H76.284C78.198 29.7861 79.416 31.1734 80.112 32.5029C80.402 33.0809 81.736 32.9075 81.562 32.3873L80.344 28.6879C80.3032 28.5437 80.2078 28.4209 80.078 28.3454C79.9482 28.27 79.794 28.2477 79.648 28.2832C76.516 28.3988 73.674 28.3988 70.542 28.2832C70.194 28.2832 70.02 28.3988 70.02 28.7457L69.904 29.3815C69.8867 29.4403 69.8846 29.5025 69.8978 29.5623C69.911 29.6221 69.9392 29.6777 69.9796 29.7238C70.0201 29.7699 70.0716 29.8051 70.1294 29.8261C70.1871 29.8471 70.2492 29.8532 70.31 29.8439C71.238 29.8439 71.238 30.6532 71.122 31.7514C70.89 33.4856 70.078 38.1098 69.73 39.8439C69.498 40.9422 69.208 41.8092 68.28 41.8092C67.932 41.8092 67.816 41.8671 67.758 42.2139L67.642 42.8497C67.526 43.2543 67.874 43.3121 68.048 43.3121C71.702 43.1387 75.066 43.1965 78.662 43.3121C78.8066 43.3316 78.9537 43.3023 79.0798 43.229C79.2058 43.1557 79.3038 43.0426 79.358 42.9075L81.214 38.4566C81.446 37.9364 80.054 37.8786 79.764 38.4566C79.068 39.9017 77.212 41.8092 75.414 41.8092H74.66C72.92 41.8092 72.746 41 72.92 39.9017C72.978 39.3237 73.268 37.5318 73.326 37.185C73.3264 37.1193 73.3406 37.0545 73.3678 36.9947C73.395 36.9349 73.4344 36.8815 73.4837 36.8379C73.5329 36.7943 73.5908 36.7615 73.6535 36.7416C73.7163 36.7218 73.7825 36.7152 73.848 36.7225H75.182C75.2866 36.7205 75.3905 36.7404 75.4868 36.7811C75.5831 36.8219 75.6697 36.8824 75.7409 36.9588C75.8121 37.0352 75.8663 37.1258 75.8999 37.2245C75.9335 37.3233 75.9458 37.428 75.936 37.5318L75.878 37.9364C75.82 38.2832 75.936 38.3988 76.284 38.3988H77.154C77.502 38.3988 77.676 38.2832 77.676 37.9364C77.7715 36.5868 78.0047 35.2505 78.372 33.948C78.43 33.6012 78.314 33.4855 77.966 33.4855H77.096C76.748 33.4855 76.632 33.6012 76.574 33.948L76.458 34.3526C76.3785 34.5559 76.2445 34.7334 76.0706 34.8659C75.8967 34.9985 75.6896 35.0808 75.472 35.104H74.08C73.732 35.104 73.616 34.9884 73.674 34.6416C73.848 33.8902 74.138 32.4451 74.254 31.6936" fill="currentColor"></path>
    <path d="M49.952 47.9364C44.152 51.2312 43.514 39.3815 41.194 39.3815C44.674 38.6301 46.53 35.8555 46.472 33.1387C46.414 30.422 44.79 27.5896 39.802 27.5896C36.38 27.5896 32.61 27.3584 31.276 27.3584C26.462 27.3584 21.358 30.133 21.358 34.7572C21.358 37.8786 24.142 39.7861 26.926 39.7861C29.072 39.7861 31.218 38.8613 31.508 37.1272C31.798 35.2197 29.826 34.6416 28.84 35.9133C28.9614 35.9948 29.0581 36.108 29.1194 36.2405C29.1808 36.373 29.2045 36.5197 29.188 36.6647C29.1787 36.9324 29.115 37.1954 29.0009 37.4379C28.8868 37.6803 28.7245 37.8972 28.524 38.0755C28.3234 38.2538 28.0887 38.3897 27.834 38.4751C27.5793 38.5604 27.3099 38.5935 27.042 38.5723C25.476 38.5723 24.258 37.0694 24.258 35.2197C24.258 31.6358 27.796 28.8613 31.218 28.8613C33.712 28.8613 34.408 29.9595 34.234 31C33.886 33.2543 33.596 35.3931 33.306 37.3584C33.016 39.3237 32.552 41 32.204 42.9075C31.972 44.0058 31.682 44.815 30.754 44.815C30.406 44.815 30.232 44.9306 30.232 45.2775L30.116 45.8555C30.0987 45.9143 30.0966 45.9765 30.1098 46.0363C30.123 46.0961 30.1512 46.1517 30.1916 46.1978C30.2321 46.2439 30.2836 46.2791 30.3414 46.3001C30.3991 46.3211 30.4612 46.3272 30.522 46.3179C32.3352 46.1445 34.1608 46.1445 35.974 46.3179C36.322 46.3179 36.496 46.2023 36.496 45.8555L36.612 45.2775C36.67 44.9306 36.554 44.815 36.206 44.815C35.278 44.815 35.278 44.0058 35.394 42.9075C35.916 38.9769 36.612 35.3353 37.424 31C37.656 29.9017 38.12 29.0925 39.222 29.0925C41.948 29.0925 42.992 31.289 42.992 33.1387C42.992 35.6243 41.31 38.052 38.352 38.2254C37.8467 38.258 37.3434 38.3158 36.844 38.3988L36.728 38.8035C37.308 38.8035 38.816 40.0751 41.02 45.5665C42.296 48.6879 43.688 51 46.182 51C47.0443 50.9941 47.8853 50.7327 48.598 50.2489C49.3107 49.765 49.8628 49.0808 50.184 48.2832C50.358 47.9942 50.184 47.8208 49.952 47.9364" fill="currentColor"></path>
    <path d="M18.458 5.9711C18.395 5.96313 18.331 5.96938 18.2708 5.98939C18.2105 6.0094 18.1556 6.04266 18.11 6.08671L17.356 6.60694C16.5521 6.18337 15.6553 5.96492 14.746 5.9711C12.368 5.9711 8.772 7.82081 8.772 11.1734C8.772 16.3757 16.602 18.8035 16.602 23.8902C16.602 27.5896 12.948 30.0751 9.7 30.0751C6.8 30.0751 3.726 28.341 3.726 24.6994C3.726 22.0405 5.35 20.2486 7.206 20.2486C7.44869 20.2242 7.69379 20.2511 7.92541 20.3272C8.15703 20.4034 8.36999 20.5273 8.55047 20.6908C8.73095 20.8543 8.87492 21.0539 8.97304 21.2764C9.07115 21.499 9.12122 21.7396 9.12 21.9827C9.13914 22.1671 9.11207 22.3535 9.04121 22.525C8.97036 22.6965 8.85793 22.8478 8.714 22.9653C8.84514 23.1532 9.01807 23.3083 9.21928 23.4186C9.4205 23.5289 9.64457 23.5914 9.874 23.6012C10.108 23.5868 10.3367 23.5255 10.5463 23.4208C10.7559 23.3162 10.9421 23.1704 11.0938 22.9923C11.2455 22.8141 11.3595 22.6072 11.4289 22.3841C11.4984 22.1609 11.5219 21.9261 11.498 21.6936C11.382 20.0751 9.41 19.0925 7.38 19.0925C4.19 19.0347 1 21.289 1 24.7572C1 28.8035 5.35 31.4624 9.642 31.4624C14.166 31.4624 19.792 28.341 19.792 22.7919C19.792 17.0694 12.136 13.948 12.136 10.0751C12.1501 9.7332 12.232 9.39742 12.3769 9.08712C12.5217 8.77683 12.7268 8.49816 12.9801 8.26714C13.2335 8.03613 13.5302 7.85734 13.8532 7.74105C14.1761 7.62477 14.519 7.5733 14.862 7.5896C16.95 7.5896 18.11 9.78613 18.632 11.0578C18.6997 11.1952 18.8087 11.308 18.9439 11.3805C19.0791 11.4531 19.2337 11.4817 19.386 11.4624C19.85 11.4624 20.256 11.2312 20.256 10.8844V10.7688L18.98 6.49133C18.922 6.14451 18.748 5.9711 18.458 5.9711Z" fill="currentColor"></path>
    <path d="M33.654 9.4393C33.591 9.43133 33.527 9.43759 33.4668 9.4576C33.4065 9.47761 33.3516 9.51087 33.306 9.55491L32.61 10.0173C31.8387 9.56448 30.9524 9.34366 30.058 9.3815C24.78 9.3815 21.358 13.948 21.242 18.3988C21.126 22.5607 23.91 25.0462 27.448 25.0462C30.87 25.0462 33.77 22.6185 33.828 20.0751C33.886 18.5723 32.9 18.1098 32.088 18.1098C31.6053 18.0939 31.1353 18.2661 30.778 18.5898C30.4206 18.9136 30.2039 19.3635 30.174 19.8439H30.348C30.754 19.8439 31.044 20.1908 31.044 20.7688C31.044 21.9827 29.826 23.4855 27.796 23.4855C25.128 23.4855 24.374 21.1734 24.432 18.8035C24.548 14.9306 26.868 10.8844 30 10.8844C32.03 10.8844 32.784 12.5029 33.422 14.237C33.4762 14.372 33.5742 14.4852 33.7002 14.5585C33.8263 14.6318 33.9733 14.661 34.118 14.6416C34.3174 14.6685 34.5195 14.6172 34.6817 14.4986C34.844 14.3801 34.9538 14.2034 34.988 14.0058V13.8902L34.118 9.90173C34.1233 9.83967 34.1149 9.77721 34.0935 9.71871C34.072 9.66022 34.038 9.60709 33.9938 9.56305C33.9496 9.51901 33.8963 9.48512 33.8376 9.46375C33.7789 9.44237 33.7163 9.43403 33.654 9.4393" fill="currentColor"></path>
    <path d="M42.47 23.4277C40.092 23.4277 39.164 21.4046 39.164 18.9769C39.164 15.7399 41.02 10.8844 44.558 10.8844C46.82 10.8844 47.806 12.9075 47.806 15.3353C47.806 18.6301 46.008 23.4277 42.47 23.4277V23.4277ZM44.674 9.3815C39.396 9.3815 35.858 13.7746 35.858 18.3988C35.858 22.6763 38.584 24.9884 42.412 24.9884C47.632 24.9884 51.17 20.5376 51.17 15.9711C51.112 11.6936 48.328 9.3815 44.674 9.3815" fill="currentColor"></path>
    <path d="M79.532 13.7746L78.488 10.0751C78.4472 9.93097 78.3519 9.8082 78.222 9.73272C78.0922 9.65724 77.938 9.63494 77.792 9.67052C75.936 9.78613 74.08 9.84393 72.572 9.84393C70.948 9.84393 68.918 9.72832 67.526 9.67052C67.3823 9.65855 67.2385 9.69097 67.1139 9.76337C66.9894 9.83576 66.8903 9.94462 66.83 10.0751L66.192 11.6936L65.728 10.0751C65.6872 9.93097 65.5919 9.8082 65.462 9.73272C65.3322 9.65724 65.178 9.63494 65.032 9.67052C63.176 9.78613 61.32 9.84393 59.812 9.84393C58.188 9.84393 56.158 9.72832 54.766 9.67052C54.6223 9.65855 54.4785 9.69097 54.3539 9.76337C54.2294 9.83576 54.1303 9.94462 54.07 10.0751L52.504 13.7168C52.272 14.2948 53.896 14.4682 54.186 13.8324C54.824 12.5607 55.984 11.1734 57.144 11.1734C58.13 11.1734 58.246 11.8092 58.072 13.0231C57.84 14.7572 57.028 19.4393 56.622 21.1734C56.39 22.2717 56.1 23.0231 55.172 23.0231C54.824 23.0231 54.65 23.1387 54.65 23.4856L54.534 24.0636C54.5167 24.1224 54.5146 24.1846 54.5278 24.2444C54.541 24.3042 54.5692 24.3598 54.6097 24.4059C54.6501 24.452 54.7016 24.4871 54.7594 24.5081C54.8171 24.5292 54.8793 24.5353 54.94 24.526C56.7144 24.3526 58.5016 24.3526 60.276 24.526C60.624 24.526 60.798 24.4104 60.798 24.0636L60.914 23.4856C60.972 23.1387 60.856 23.0231 60.508 23.0231C59.58 23.0231 59.58 22.2139 59.696 21.1734C59.928 19.4393 60.798 14.7572 61.146 13.0231C61.378 11.9827 61.668 11.2312 62.48 11.1734C63.698 11.0578 64.336 12.5029 65.032 13.8902C65.1493 14.0317 65.3031 14.1388 65.4768 14.1999C65.6505 14.261 65.8376 14.2738 66.018 14.237C66.1888 14.2511 66.3606 14.2273 66.5211 14.1673C66.6815 14.1074 66.8266 14.0127 66.946 13.8902C67.584 12.6185 68.744 11.2312 69.904 11.2312C70.89 11.2312 71.006 11.8671 70.832 13.0809C70.6 14.815 69.788 19.4971 69.382 21.2312C69.15 22.3295 68.86 23.0809 67.932 23.0809C67.584 23.0809 67.41 23.1965 67.41 23.5434L67.294 24.1214C67.2767 24.1802 67.2746 24.2424 67.2878 24.3022C67.301 24.362 67.3292 24.4176 67.3697 24.4637C67.4101 24.5098 67.4616 24.5449 67.5194 24.566C67.5771 24.587 67.6393 24.5931 67.7 24.5838C69.4744 24.4104 71.2616 24.4104 73.036 24.5838C73.384 24.5838 73.558 24.4682 73.558 24.1214L73.674 23.5434C73.732 23.1965 73.616 23.0809 73.268 23.0809C72.34 23.0809 72.34 22.2717 72.456 21.2312C72.688 19.4971 73.558 14.815 73.906 13.0809C74.138 12.0405 74.428 11.289 75.24 11.2312C76.458 11.1156 77.096 12.5607 77.792 13.948C78.14 14.526 79.648 14.2948 79.532 13.7746" fill="currentColor"></path>
    <path d="M86.956 10.6532L87.072 10.0751C87.13 9.72832 87.014 9.55491 86.666 9.61271C84.911 9.78623 83.143 9.78623 81.388 9.61271C81.04 9.61271 80.866 9.72832 80.866 10.0751L80.75 10.6532C80.7327 10.712 80.7306 10.7742 80.7438 10.834C80.757 10.8938 80.7851 10.9493 80.8256 10.9954C80.8661 11.0416 80.9176 11.0767 80.9754 11.0977C81.0331 11.1187 81.0952 11.1249 81.156 11.1156C82.084 11.1156 82.084 11.9249 81.968 13.0231C81.736 14.7572 80.866 19.4971 80.518 21.2312C80.286 22.3295 79.996 23.1387 79.068 23.1387C78.72 23.1387 78.546 23.2543 78.546 23.6011L78.43 24.1792C78.4127 24.238 78.4106 24.3002 78.4238 24.36C78.437 24.4198 78.4652 24.4754 78.5056 24.5215C78.5461 24.5676 78.5976 24.6027 78.6554 24.6237C78.7131 24.6448 78.7752 24.6509 78.836 24.6416C80.591 24.4682 82.359 24.4682 84.114 24.6416C84.462 24.6416 84.636 24.526 84.636 24.1792L84.752 23.6011C84.81 23.2543 84.694 23.1387 84.346 23.1387C83.418 23.1387 83.418 22.3295 83.534 21.2312C83.766 19.4971 84.636 14.7572 84.984 13.0231C85.216 11.9249 85.506 11.1156 86.434 11.1156C86.782 11.1734 86.956 11 86.956 10.6532Z" fill="currentColor"></path>
    <path d="M93.626 11.1734C95.25 11.1734 96.178 12.1561 96.932 13.4277C97.022 13.5581 97.1437 13.6635 97.2857 13.7343C97.4277 13.805 97.5854 13.8388 97.744 13.8324C98.15 13.8324 98.672 13.5434 98.672 13.1965V13.0809L97.802 10.0173C97.8004 9.90421 97.7655 9.79402 97.7017 9.70046C97.6379 9.60689 97.5479 9.53405 97.4429 9.49097C97.3379 9.44789 97.2226 9.43646 97.1111 9.4581C96.9997 9.47974 96.8971 9.5335 96.816 9.61272L96.12 10.0751C95.3183 9.64576 94.4201 9.42694 93.51 9.43931C91.19 9.43931 88.348 10.8266 88.348 13.6012C88.348 17.5318 94.264 18.3988 94.264 21.289C94.264 22.5029 93.336 23.4277 91.77 23.4277C89.972 23.4277 89.16 22.4451 89.16 21.4624C89.1464 21.1836 89.2321 20.9089 89.4018 20.6868C89.5716 20.4647 89.8146 20.3095 90.088 20.2486C89.9502 19.9556 89.7271 19.7108 89.4479 19.5459C89.1686 19.3809 88.846 19.3035 88.522 19.3237C88.2235 19.3265 87.9286 19.3892 87.6549 19.5078C87.3812 19.6265 87.1342 19.7988 86.9286 20.0145C86.723 20.2302 86.563 20.4848 86.4581 20.7634C86.3532 21.0419 86.3056 21.3386 86.318 21.6358C86.318 24.1214 89.392 25.0462 91.77 25.0462C94.902 25.0462 97.57 23.3699 97.57 20.3642C97.57 16.3179 91.712 14.9884 91.712 12.6763C91.712 11.6358 92.814 11.1734 93.626 11.1734" fill="currentColor"></path>
    <path d="M116.014 9.61271C114.24 9.78633 112.452 9.78633 110.678 9.61271C110.33 9.61271 110.156 9.72832 110.156 10.0751L110.04 10.6532C110.023 10.712 110.021 10.7742 110.034 10.834C110.047 10.8938 110.075 10.9493 110.116 10.9954C110.156 11.0416 110.208 11.0767 110.265 11.0977C110.323 11.1187 110.385 11.1249 110.446 11.1156C111.374 11.1156 111.374 11.9249 111.258 13.0231C111.142 13.8324 110.91 15.104 110.736 16.2023C110.736 16.2679 110.721 16.3328 110.694 16.3925C110.667 16.4523 110.628 16.5058 110.578 16.5494C110.529 16.593 110.471 16.6258 110.408 16.6457C110.346 16.6655 110.279 16.672 110.214 16.6647H104.704C104.356 16.6647 104.24 16.5491 104.298 16.2023C104.472 15.104 104.704 13.8902 104.936 13.0231C105.168 11.9249 105.458 11.1156 106.386 11.1156C106.734 11.1156 106.908 11 106.908 10.6532L107.024 10.0751C107.082 9.72832 106.966 9.55491 106.618 9.61271C104.844 9.78633 103.056 9.78633 101.282 9.61271C100.934 9.61271 100.76 9.72832 100.76 10.0751L100.644 10.6532C100.627 10.712 100.625 10.7742 100.638 10.834C100.651 10.8938 100.679 10.9493 100.72 10.9954C100.76 11.0416 100.812 11.0767 100.869 11.0977C100.927 11.1187 100.989 11.1249 101.05 11.1156C101.978 11.1156 101.978 11.9249 101.862 13.0231C101.63 14.7572 100.76 19.4971 100.412 21.2312C100.18 22.3295 99.89 23.1387 98.962 23.1387C98.614 23.1387 98.44 23.2543 98.44 23.6011L98.324 24.1792C98.3067 24.238 98.3046 24.3002 98.3178 24.36C98.331 24.4198 98.3592 24.4754 98.3996 24.5215C98.4401 24.5676 98.4916 24.6027 98.5494 24.6237C98.6071 24.6448 98.6692 24.6509 98.73 24.6416C100.504 24.4682 102.292 24.4682 104.066 24.6416C104.414 24.6416 104.588 24.526 104.588 24.1792L104.704 23.6011C104.762 23.2543 104.646 23.1387 104.298 23.1387C103.37 23.1387 103.37 22.3295 103.486 21.2312C103.544 20.711 103.776 19.5549 103.834 19.0347C103.834 18.969 103.849 18.9042 103.876 18.8444C103.903 18.7847 103.942 18.7312 103.992 18.6876C104.041 18.644 104.099 18.6112 104.162 18.5913C104.224 18.5715 104.291 18.565 104.356 18.5722H109.808C110.156 18.5722 110.272 18.6879 110.214 19.0347L109.808 21.2312C109.576 22.3295 109.286 23.1387 108.358 23.1387C108.01 23.1387 107.836 23.2543 107.836 23.6011L107.72 24.1792C107.703 24.238 107.701 24.3002 107.714 24.36C107.727 24.4198 107.755 24.4754 107.796 24.5215C107.836 24.5676 107.888 24.6027 107.945 24.6237C108.003 24.6448 108.065 24.6509 108.126 24.6416C109.9 24.4682 111.688 24.4682 113.462 24.6416C113.81 24.6416 113.984 24.526 113.984 24.1792L114.1 23.6011C114.158 23.2543 114.042 23.1387 113.694 23.1387C112.766 23.1387 112.766 22.3295 112.882 21.2312C113.114 19.4971 113.984 14.7572 114.332 13.0231C114.564 11.9249 114.854 11.1156 115.782 11.1156C116.13 11.1156 116.304 11 116.304 10.6532L116.42 10.0751C116.478 9.78613 116.362 9.61271 116.014 9.61271" fill="currentColor"></path>
    <path d="M32.32 1H32.842V5.73988H32.436L29.536 1.92486V5.73988H29.014V1H29.478L32.32 4.81503V1Z" fill="currentColor"></path>
    <path d="M36.032 5.04624C36.2309 4.77955 36.3331 4.4535 36.322 4.12139C36.3331 3.78928 36.2309 3.46323 36.032 3.19653C35.9389 3.08794 35.8233 3.00075 35.6931 2.94097C35.5629 2.88119 35.4213 2.85023 35.278 2.85023C35.1347 2.85023 34.9931 2.88119 34.8629 2.94097C34.7327 3.00075 34.6171 3.08794 34.524 3.19653C34.3251 3.46323 34.2229 3.78928 34.234 4.12139C34.206 4.44681 34.2876 4.77226 34.466 5.04624C34.5524 5.1625 34.6667 5.25521 34.7985 5.31583C34.9302 5.37644 35.0752 5.403 35.22 5.39306C35.5224 5.37318 35.809 5.2508 36.032 5.04624V5.04624ZM34.466 5.56647C34.2355 5.43315 34.0528 5.23093 33.944 4.98844C33.8198 4.69625 33.7605 4.38076 33.77 4.06358C33.7662 3.74687 33.8253 3.43254 33.944 3.13873C34.0528 2.89624 34.2355 2.69401 34.466 2.56069C34.7157 2.4236 34.9933 2.34455 35.278 2.32948C35.5667 2.31688 35.8516 2.39802 36.09 2.56069C36.3205 2.69401 36.5032 2.89624 36.612 3.13873C36.7362 3.43092 36.7955 3.74641 36.786 4.06358C36.7898 4.38029 36.7307 4.69462 36.612 4.98844C36.5032 5.23093 36.3205 5.43315 36.09 5.56647C35.8403 5.70357 35.5627 5.78261 35.278 5.79769C34.9894 5.81029 34.7044 5.72915 34.466 5.56647" fill="currentColor"></path>
    <path d="M39.57 2.84971L39.222 2.90751C38.9461 2.92115 38.6819 3.02243 38.468 3.19653C38.3838 3.29018 38.3197 3.40006 38.2798 3.51937C38.2399 3.63868 38.225 3.76489 38.236 3.89017V5.73988H37.714V2.44509H38.236V3.02312C38.41 2.6185 38.758 2.44509 39.338 2.38728H39.512L39.57 2.84971Z" fill="currentColor"></path>
    <path d="M42.064 5.33526V5.73989H41.716C41.399 5.76207 41.0862 5.65814 40.846 5.45087C40.6562 5.20153 40.5543 4.89676 40.556 4.58382V2.84971H39.86V2.44509H40.498V1.46243H41.02V2.44509H41.948V2.84971H41.02V4.52601C41.02 5.04624 41.252 5.27746 41.716 5.27746C41.8277 5.31671 41.9455 5.33627 42.064 5.33526" fill="currentColor"></path>
    <path d="M45.486 3.65896V5.73988H44.964V3.71676C44.9761 3.47349 44.9156 3.23209 44.79 3.02312C44.7149 2.94641 44.6244 2.8862 44.5245 2.84639C44.4247 2.80657 44.3175 2.78801 44.21 2.79191C44.0805 2.79093 43.952 2.81603 43.8324 2.86569C43.7128 2.91535 43.6045 2.98856 43.514 3.08092C43.4008 3.18275 43.3111 3.30782 43.251 3.44752C43.1909 3.58722 43.1619 3.73824 43.166 3.89017V5.73988H42.644V1H43.166V2.96532C43.2728 2.76988 43.4339 2.60931 43.63 2.50289C43.8243 2.38718 44.0468 2.32713 44.2731 2.32937C44.4994 2.33161 44.7206 2.39605 44.9125 2.51558C45.1045 2.63512 45.2595 2.80511 45.3607 3.00685C45.4619 3.20859 45.5052 3.43424 45.486 3.65896" fill="currentColor"></path>
    <path d="M47.168 3.08093C47.0701 3.17931 46.9937 3.29692 46.9438 3.42628C46.8939 3.55564 46.8715 3.69393 46.878 3.83237H48.792C48.7951 3.56392 48.714 3.30122 48.56 3.08093C48.3931 2.90569 48.1643 2.80204 47.922 2.79191C47.7831 2.78538 47.6443 2.8077 47.5145 2.85745C47.3847 2.90721 47.2667 2.98331 47.168 3.08093V3.08093ZM49.198 4.17919H46.82C46.7977 4.49507 46.902 4.80685 47.11 5.04624C47.3334 5.24298 47.6241 5.34648 47.922 5.33526C48.1146 5.34321 48.3068 5.31136 48.4865 5.24173C48.6661 5.1721 48.8294 5.06618 48.966 4.93064L49.14 5.33526C48.9631 5.47617 48.768 5.59282 48.56 5.68208C48.3336 5.74871 48.0999 5.78753 47.864 5.79769C47.6402 5.80656 47.4169 5.77017 47.2075 5.69069C46.9982 5.61122 46.8072 5.49031 46.646 5.33526C46.4871 5.16511 46.3641 4.96485 46.2844 4.74639C46.2047 4.52793 46.1699 4.29573 46.182 4.06358C46.1719 3.76504 46.2315 3.46824 46.356 3.19653C46.4648 2.95404 46.6475 2.75182 46.878 2.6185C47.1277 2.4814 47.4053 2.40236 47.69 2.38728C47.8832 2.37407 48.0769 2.40349 48.2573 2.47342C48.4378 2.54336 48.6006 2.65211 48.734 2.79191C48.9777 3.12704 49.1003 3.53451 49.082 3.94798V4.17919H49.198Z" fill="currentColor"></path>
    <path d="M51.866 2.84971L51.518 2.90751C51.2422 2.92115 50.9779 3.02243 50.764 3.19653C50.6798 3.29018 50.6157 3.40006 50.5758 3.51937C50.5359 3.63868 50.521 3.76489 50.532 3.89017V5.73988H50.01V2.44509H50.532V3.02312C50.706 2.6185 51.054 2.44509 51.634 2.38728H51.808L51.866 2.84971Z" fill="currentColor"></path>
    <path d="M55.23 3.65896V5.73988H54.708V3.71676C54.7201 3.47348 54.6596 3.23209 54.534 3.02312C54.4588 2.9464 54.3684 2.8862 54.2685 2.84638C54.1686 2.80657 54.0615 2.78801 53.954 2.79191C53.8244 2.79093 53.696 2.81603 53.5764 2.86569C53.4568 2.91535 53.3485 2.98856 53.258 3.08092C53.1527 3.18609 53.072 3.3132 53.0219 3.45313C52.9718 3.59305 52.9533 3.74231 52.968 3.89017V5.73988H52.446V2.44509H52.968V2.96532C53.0748 2.76988 53.2359 2.60931 53.432 2.50289C53.6233 2.38462 53.8449 2.32436 54.07 2.32948C54.882 2.38728 55.23 2.79191 55.23 3.65896" fill="currentColor"></path>
    <path d="M62.132 1H62.596V5.73988H62.074V2.09827L60.508 4.98844H60.16L58.594 2.09827V5.73988H58.072V1H58.536L60.334 4.46821L62.132 1Z" fill="currentColor"></path>
    <path d="M65.438 5.10405C65.5222 5.0104 65.5863 4.90052 65.6262 4.78121C65.6661 4.6619 65.681 4.53569 65.67 4.41041V4.17919H65.554C65.2435 4.16358 64.9322 4.18297 64.626 4.237C64.4646 4.27507 64.3087 4.33333 64.162 4.41041C64.046 4.46821 64.046 4.58382 64.046 4.75723C64.0417 4.92802 64.104 5.09382 64.22 5.21965C64.3463 5.33522 64.5126 5.39739 64.684 5.39307C64.962 5.38988 65.2295 5.28731 65.438 5.10405V5.10405ZM65.96 2.73411C66.0747 2.86854 66.1598 3.02547 66.2097 3.19474C66.2597 3.36402 66.2734 3.54186 66.25 3.71676V5.79769H65.728V5.21965C65.6431 5.41141 65.5014 5.57275 65.322 5.68208C65.1307 5.80036 64.9091 5.86061 64.684 5.85549C64.4855 5.85023 64.2893 5.81113 64.104 5.73989C63.93 5.68208 63.814 5.50867 63.698 5.39307C63.5889 5.24101 63.5283 5.05973 63.524 4.87283C63.5102 4.66555 63.572 4.46026 63.698 4.2948C63.8804 4.14254 64.101 4.04263 64.336 4.00578C64.7371 3.92702 65.1452 3.88829 65.554 3.89017H65.728V3.60116C65.7396 3.49809 65.7302 3.39375 65.7003 3.29441C65.6704 3.19507 65.6206 3.10279 65.554 3.02312C65.483 2.96094 65.4003 2.91356 65.3106 2.88378C65.221 2.854 65.1262 2.84241 65.032 2.84971C64.6375 2.84902 64.2525 2.97019 63.93 3.19653L63.756 2.79191C63.9513 2.66138 64.1669 2.56374 64.394 2.50289C64.6204 2.43627 64.8542 2.39744 65.09 2.38728C65.2513 2.38162 65.4119 2.40953 65.5617 2.46925C65.7115 2.52897 65.8472 2.61918 65.96 2.73411" fill="currentColor"></path>
    <path d="M67.062 5.39306L67.236 4.98844C67.397 5.10652 67.5724 5.20364 67.758 5.27746C67.9633 5.34896 68.1786 5.38797 68.396 5.39306C68.5946 5.3878 68.7907 5.3487 68.976 5.27746C69.0315 5.23842 69.0764 5.18633 69.1067 5.12582C69.1371 5.06531 69.1519 4.99826 69.15 4.93064C69.148 4.82342 69.1068 4.72062 69.034 4.64162C68.9089 4.56256 68.7718 4.50401 68.628 4.46821L68.048 4.3526C67.8036 4.30808 67.5799 4.18651 67.41 4.00578C67.3315 3.93202 67.2701 3.84209 67.23 3.74227C67.19 3.64244 67.1722 3.53511 67.178 3.42775C67.1747 3.29258 67.2046 3.15866 67.2653 3.03773C67.326 2.91679 67.4155 2.81254 67.526 2.7341C67.7936 2.53588 68.1208 2.43399 68.454 2.44509C68.6714 2.45018 68.8867 2.48919 69.092 2.56069C69.3042 2.60543 69.491 2.72957 69.614 2.90751L69.44 3.19653C69.1655 2.95643 68.8186 2.8141 68.454 2.79191C68.2734 2.7894 68.0946 2.82899 67.932 2.90751C67.8635 2.9513 67.8065 3.01097 67.7661 3.08143C67.7257 3.15189 67.7031 3.23104 67.7 3.31214C67.702 3.41936 67.7432 3.52216 67.816 3.60116C67.9412 3.68022 68.0783 3.73876 68.222 3.77457L68.802 3.89017C69.0637 3.9336 69.3062 4.05444 69.498 4.23699C69.5765 4.31076 69.6379 4.40068 69.678 4.50051C69.7181 4.60034 69.7358 4.70767 69.73 4.81503C69.7334 4.9502 69.7034 5.08411 69.6427 5.20505C69.582 5.32598 69.4925 5.43023 69.382 5.50867C69.1071 5.68647 68.7805 5.76783 68.454 5.73988C67.9624 5.80916 67.4631 5.68475 67.062 5.39306" fill="currentColor"></path>
    <path d="M72.63 5.04624C72.8084 4.77226 72.89 4.44681 72.862 4.12139C72.8731 3.78928 72.7709 3.46323 72.572 3.19653C72.4789 3.08794 72.3633 3.00075 72.2331 2.94097C72.1029 2.88119 71.9613 2.85023 71.818 2.85023C71.6747 2.85023 71.5331 2.88119 71.4029 2.94097C71.2727 3.00075 71.1571 3.08794 71.064 3.19653C70.8651 3.46323 70.7629 3.78928 70.774 4.12139C70.7742 4.44395 70.8539 4.76152 71.006 5.04624C71.0923 5.1625 71.2067 5.25521 71.3385 5.31583C71.4702 5.37644 71.6152 5.403 71.76 5.39306C72.0794 5.37167 72.3839 5.25029 72.63 5.04624V5.04624ZM71.064 5.56647C70.8335 5.43315 70.6508 5.23093 70.542 4.98844C70.4178 4.69625 70.3585 4.38076 70.368 4.06358C70.3642 3.74687 70.4233 3.43254 70.542 3.13873C70.6508 2.89624 70.8335 2.69401 71.064 2.56069C71.3137 2.4236 71.5913 2.34455 71.876 2.32948C72.1646 2.31688 72.4496 2.39802 72.688 2.56069C72.9185 2.69401 73.1012 2.89624 73.21 3.13873C73.3342 3.43092 73.3935 3.7464 73.384 4.06358C73.3878 4.38029 73.3287 4.69462 73.21 4.98844C73.1012 5.23093 72.9185 5.43315 72.688 5.56647C72.4383 5.70357 72.1607 5.78261 71.876 5.79769C71.5864 5.81857 71.2988 5.73666 71.064 5.56647" fill="currentColor"></path>
    <path d="M77.096 3.65896V5.73988H76.574V3.71676C76.5861 3.47348 76.5256 3.23209 76.4 3.02312C76.3249 2.9464 76.2344 2.8862 76.1345 2.84638C76.0347 2.80657 75.9275 2.78801 75.82 2.79191C75.6905 2.79093 75.562 2.81603 75.4424 2.86569C75.3228 2.91535 75.2145 2.98856 75.124 3.08092C75.0261 3.17931 74.9497 3.29692 74.8998 3.42628C74.8499 3.55563 74.8275 3.69392 74.834 3.83237V5.68208H74.312V2.44509H74.834V2.96532C74.9408 2.76988 75.1019 2.60931 75.298 2.50289C75.4893 2.38462 75.711 2.32436 75.936 2.32948C76.1042 2.32758 76.2707 2.36214 76.4241 2.43076C76.5775 2.49938 76.7142 2.60042 76.8245 2.72689C76.9348 2.85335 77.0163 3.00221 77.0632 3.16315C77.11 3.32409 77.1213 3.49327 77.096 3.65896" fill="currentColor"></path>
    <path d="M78.082 2.44509H78.604V5.73989H78.082V2.44509ZM78.024 1.0578H78.662V1.69364H78.024V1.0578Z" fill="currentColor"></path>
    <path d="M80.17 5.56647C79.9394 5.43315 79.7568 5.23093 79.648 4.98844C79.5292 4.71491 79.4699 4.41941 79.474 4.12139C79.4702 3.80468 79.5293 3.49035 79.648 3.19653C79.779 2.95038 79.981 2.74903 80.228 2.6185C80.4955 2.47378 80.7937 2.39453 81.098 2.38728C81.3154 2.39238 81.5307 2.43139 81.736 2.50289C81.933 2.55035 82.1135 2.65024 82.258 2.79191L82.084 3.19653C81.8252 2.96753 81.5004 2.82591 81.156 2.79191C81.0035 2.78783 80.852 2.81672 80.7118 2.87659C80.5717 2.93646 80.4462 3.02589 80.344 3.13873C80.1451 3.40542 80.0429 3.73148 80.054 4.06358C80.0429 4.39569 80.1451 4.72174 80.344 4.98844C80.4423 5.10591 80.5672 5.19856 80.7083 5.25883C80.8494 5.3191 81.0028 5.34529 81.156 5.33526C81.3306 5.337 81.5036 5.30184 81.6635 5.23209C81.8235 5.16235 81.9668 5.0596 82.084 4.93064L82.258 5.33526C82.1135 5.47693 81.933 5.57682 81.736 5.62428C81.5294 5.69064 81.3148 5.72952 81.098 5.73988C80.7778 5.80681 80.4441 5.74445 80.17 5.56647" fill="currentColor"></path>
    <path d="M84.056 5.33526H84.462C84.5601 5.3333 84.6568 5.31184 84.7464 5.27214C84.836 5.23243 84.9168 5.17528 84.984 5.10405C85.1101 4.93859 85.1719 4.7333 85.158 4.52601V1H85.738V4.46821C85.7492 4.80032 85.6469 5.12637 85.448 5.39306C85.3377 5.51136 85.2025 5.60382 85.0521 5.66379C84.9016 5.72375 84.7397 5.74974 84.578 5.73988H84.114L84.056 5.33526Z" fill="currentColor"></path>
    <path d="M89.624 2.44509V5.73989H89.102V5.16185C88.9952 5.35729 88.8341 5.51786 88.638 5.62428C88.4467 5.74255 88.2251 5.8028 88 5.79769C87.8377 5.8138 87.6739 5.79069 87.5225 5.73032C87.371 5.66995 87.2364 5.57409 87.13 5.45087C86.9231 5.16618 86.8207 4.81922 86.84 4.46821V2.44509H87.362V4.46821C87.3402 4.69421 87.4021 4.92035 87.536 5.10405C87.6112 5.18076 87.7016 5.24096 87.8015 5.28078C87.9014 5.3206 88.0085 5.33916 88.116 5.33526C88.2456 5.33623 88.374 5.31114 88.4936 5.26148C88.6132 5.21182 88.7215 5.13861 88.812 5.04624C88.91 4.94786 88.9863 4.83025 89.0362 4.70089C89.0862 4.57153 89.1086 4.43324 89.102 4.2948V2.44509H89.624Z" fill="currentColor"></path>
    <path d="M92.466 2.84971L92.118 2.90751C91.8421 2.92115 91.5779 3.02243 91.364 3.19653C91.2798 3.29018 91.2157 3.40006 91.1758 3.51937C91.1359 3.63868 91.121 3.76489 91.132 3.89017V5.73988H90.61V2.44509H91.132V3.02312C91.306 2.6185 91.654 2.44509 92.234 2.38728H92.408L92.466 2.84971Z" fill="currentColor"></path>
    <path d="M92.988 2.44509H93.51V5.73989H92.988V2.44509ZM92.93 1.0578H93.568V1.69364H92.93V1.0578Z" fill="currentColor"></path>
    <path d="M94.38 5.39306L94.554 4.98844C94.715 5.10652 94.8904 5.20364 95.076 5.27746C95.2813 5.34896 95.4966 5.38797 95.714 5.39306C95.9125 5.3878 96.1087 5.3487 96.294 5.27746C96.3494 5.23842 96.3943 5.18633 96.4247 5.12582C96.4551 5.06531 96.4699 4.99826 96.468 4.93064C96.466 4.82342 96.4248 4.72062 96.352 4.64162C96.2268 4.56256 96.0898 4.50401 95.946 4.46821L95.366 4.3526C95.1164 4.32332 94.8878 4.19906 94.728 4.00578C94.6495 3.93202 94.5881 3.84209 94.548 3.74227C94.508 3.64244 94.4902 3.53511 94.496 3.42775C94.4927 3.29258 94.5226 3.15866 94.5833 3.03773C94.644 2.91679 94.7335 2.81254 94.844 2.7341C95.1116 2.53588 95.4388 2.43399 95.772 2.44509C95.9894 2.45018 96.2047 2.48919 96.41 2.56069C96.6221 2.60543 96.809 2.72956 96.932 2.90751L96.758 3.31214C96.4834 3.07204 96.1366 2.9297 95.772 2.90751C95.5913 2.90501 95.4126 2.9446 95.25 3.02312C95.1992 3.06636 95.1576 3.11935 95.1277 3.17893C95.0978 3.23851 95.0802 3.30346 95.076 3.36994C95.078 3.47716 95.1192 3.57996 95.192 3.65896C95.3172 3.73802 95.4542 3.79657 95.598 3.83237L96.178 3.94798C96.4397 3.9914 96.6822 4.11224 96.874 4.2948C96.9525 4.36856 97.0139 4.45849 97.054 4.55831C97.094 4.65814 97.1118 4.76547 97.106 4.87283C97.1093 5.008 97.0794 5.14192 97.0187 5.26285C96.958 5.38378 96.8685 5.48804 96.758 5.56647C96.4831 5.74427 96.1565 5.82563 95.83 5.79769C95.3146 5.83087 94.8032 5.68816 94.38 5.39306" fill="currentColor"></path>
    <path d="M99.948 4.98844C100.126 4.71445 100.208 4.38901 100.18 4.06358C100.208 3.73816 100.126 3.41271 99.948 3.13873C99.8549 3.03014 99.7393 2.94295 99.6091 2.88317C99.4789 2.82339 99.3373 2.79243 99.194 2.79243C99.0507 2.79243 98.9091 2.82339 98.7789 2.88317C98.6487 2.94295 98.5331 3.03014 98.44 3.13873C98.2411 3.40542 98.1389 3.73148 98.15 4.06358C98.1389 4.39569 98.2411 4.72174 98.44 4.98844C98.5264 5.1047 98.6407 5.19741 98.7725 5.25802C98.9042 5.31864 99.0492 5.3452 99.194 5.33526C99.338 5.33933 99.481 5.31015 99.6118 5.24998C99.7426 5.18981 99.8577 5.1003 99.948 4.98844V4.98844ZM100.702 1V5.73988H100.18V5.16185C100.089 5.36843 99.9233 5.53343 99.716 5.62428C99.5063 5.74942 99.2641 5.80977 99.02 5.79769C98.7493 5.81077 98.4825 5.72897 98.266 5.56647C98.0355 5.43315 97.8528 5.23093 97.744 4.98844C97.6198 4.69625 97.5605 4.38076 97.57 4.06358C97.5599 3.76504 97.6195 3.46824 97.744 3.19653C97.8528 2.95404 98.0355 2.75182 98.266 2.6185C98.4948 2.4817 98.7536 2.40235 99.02 2.38728C99.2625 2.38978 99.5009 2.44919 99.716 2.56069C99.8987 2.68411 100.056 2.84105 100.18 3.02312V1H100.702Z" fill="currentColor"></path>
    <path d="M101.746 2.44509H102.268V5.73989H101.746V2.44509ZM101.688 1.0578H102.326V1.69364H101.688V1.0578Z" fill="currentColor"></path>
    <path d="M103.834 5.56647C103.603 5.43315 103.421 5.23093 103.312 4.98844C103.193 4.71491 103.134 4.41941 103.138 4.12139C103.134 3.80468 103.193 3.49035 103.312 3.19653C103.443 2.95038 103.645 2.74903 103.892 2.6185C104.16 2.47378 104.458 2.39453 104.762 2.38728C104.979 2.39238 105.195 2.43139 105.4 2.50289C105.597 2.55035 105.777 2.65024 105.922 2.79191L105.748 3.19653C105.489 2.96753 105.164 2.82591 104.82 2.79191C104.668 2.78783 104.516 2.81672 104.376 2.87659C104.236 2.93646 104.11 3.02589 104.008 3.13873C103.809 3.40542 103.707 3.73148 103.718 4.06358C103.707 4.39569 103.809 4.72174 104.008 4.98844C104.106 5.10591 104.231 5.19856 104.372 5.25883C104.513 5.3191 104.667 5.34529 104.82 5.33526C104.995 5.337 105.168 5.30184 105.328 5.23209C105.487 5.16235 105.631 5.0596 105.748 4.93064L105.922 5.33526C105.777 5.47693 105.597 5.57682 105.4 5.62428C105.193 5.69064 104.979 5.72952 104.762 5.73988C104.604 5.77744 104.439 5.78141 104.28 5.75153C104.12 5.72166 103.968 5.65861 103.834 5.56647" fill="currentColor"></path>
    <path d="M108.3 5.33526V5.73989H107.952C107.635 5.76207 107.322 5.65814 107.082 5.45087C106.892 5.20153 106.79 4.89676 106.792 4.58382V2.84971H106.154V2.44509H106.792V1.46243H107.314V2.44509H108.242V2.84971H107.314V4.52601C107.314 5.04624 107.546 5.27746 108.01 5.27746C108.097 5.32989 108.2 5.35034 108.3 5.33526" fill="currentColor"></path>
    <path d="M108.822 2.44509H109.344V5.73989H108.822V2.44509ZM108.822 1.0578H109.46V1.69364H108.822V1.0578Z" fill="currentColor"></path>
    <path d="M112.534 5.04624C112.712 4.77226 112.794 4.44681 112.766 4.12139C112.777 3.78928 112.675 3.46323 112.476 3.19653C112.383 3.08794 112.267 3.00075 112.137 2.94097C112.007 2.88119 111.865 2.85023 111.722 2.85023C111.579 2.85023 111.437 2.88119 111.307 2.94097C111.177 3.00075 111.061 3.08794 110.968 3.19653C110.769 3.46323 110.667 3.78928 110.678 4.12139C110.65 4.44681 110.732 4.77226 110.91 5.04624C110.996 5.1625 111.111 5.25521 111.242 5.31583C111.374 5.37644 111.519 5.403 111.664 5.39306C111.986 5.38406 112.295 5.26112 112.534 5.04624V5.04624ZM110.968 5.56647C110.737 5.43315 110.555 5.23093 110.446 4.98844C110.322 4.69625 110.262 4.38076 110.272 4.06358C110.268 3.74687 110.327 3.43254 110.446 3.13873C110.555 2.89624 110.737 2.69401 110.968 2.56069C111.218 2.4236 111.495 2.34455 111.78 2.32948C112.069 2.31688 112.354 2.39802 112.592 2.56069C112.826 2.70754 113.025 2.9051 113.172 3.13873C113.296 3.43092 113.356 3.74641 113.346 4.06358C113.35 4.38029 113.291 4.69462 113.172 4.98844C113.056 5.24508 112.85 5.45062 112.592 5.56647C112.342 5.70357 112.065 5.78261 111.78 5.79769C111.491 5.81029 111.206 5.72915 110.968 5.56647" fill="currentColor"></path>
    <path d="M117 3.65896V5.73988H116.478V3.71676C116.49 3.47348 116.43 3.23209 116.304 3.02312C116.229 2.9464 116.138 2.8862 116.039 2.84638C115.939 2.80657 115.832 2.78801 115.724 2.79191C115.594 2.79093 115.466 2.81603 115.346 2.86569C115.227 2.91535 115.119 2.98856 115.028 3.08092C114.93 3.17931 114.854 3.29692 114.804 3.42628C114.754 3.55563 114.731 3.69392 114.738 3.83237V5.68208H114.216V2.44509H114.738V2.96532C114.845 2.76988 115.006 2.60931 115.202 2.50289C115.393 2.38462 115.615 2.32436 115.84 2.32948C116.008 2.32758 116.175 2.36214 116.328 2.43076C116.482 2.49938 116.618 2.60042 116.728 2.72689C116.839 2.85335 116.92 3.00221 116.967 3.16315C117.014 3.32409 117.025 3.49327 117 3.65896Z" fill="currentColor"></path>
    <path d="M81.562 28.3988V28.1098H83.07V28.3988H82.49V29.9017H82.142V28.3988H81.562ZM84.868 28.1098H85.1V29.9017H84.81V28.6879L84.346 29.6127H84.114L83.65 28.6879V29.9017H83.36V28.1098H83.592L84.23 29.3237L84.868 28.1098Z" fill="currentColor"></path>
  </g>
  <defs>
    <clipPath id="kqdirmeybr-clip0_394_114">
      <rect width="116" height="50" transform="translate(1 1)"></rect>
    </clipPath>
  </defs>
</svg>